<svg xmlns="http://www.w3.org/2000/svg" width="34" height="31" viewBox="0 0 34 31">
    <path fill="#13E57E" fill-rule="evenodd" d="M0 15.5C0 6.94 7.497 0 16.745 0c9.249 0 16.746 6.94 16.746 15.5 0 8.56-7.497 15.5-16.746 15.5C7.497 31 0 24.06 0 15.5zm9.416-3.69V22h3.216V11.81H9.416zm12.003-.098c-1.843 0-2.997.998-3.21 1.698v-1.6h-3.613c.046.85 0 10.19 0 10.19h3.613v-5.514c0-.306-.015-.613.078-.833.249-.613.782-1.248 1.742-1.248 1.254 0 1.825.942 1.825 2.322V22H25.5v-5.666c0-3.156-1.796-4.622-4.081-4.622zM10.964 7C9.777 7 9 7.763 9 8.769c0 .988.755 1.767 1.919 1.767h.023c1.21 0 1.962-.782 1.962-1.77C12.88 7.761 12.15 7 10.964 7z"/>
</svg>
