<svg xmlns="http://www.w3.org/2000/svg" width="21" height="18" viewBox="0 0 21 18">
    <path fill="#FFF" fill-rule="evenodd" d="M.506 5.772H4.42V18H.506V5.772zm14.605-.117c2.78 0 4.966 1.758 4.966 5.546V18H15.64v-6.328c0-1.656-.694-2.786-2.22-2.786-1.168 0-1.817.762-2.12 1.498-.113.264-.095.631-.095 1V18H6.809s.057-11.209 0-12.228h4.396v1.92c.26-.84 1.664-2.037 3.906-2.037zM2.39 0c1.443 0 2.33.913 2.36 2.12 0 1.185-.917 2.123-2.388 2.123h-.028C.919 4.243 0 3.308 0 2.123 0 .915.945 0 2.39 0z"/>
</svg>
