<svg xmlns="http://www.w3.org/2000/svg" width="140" height="140" viewBox="0 0 140 140">
    <defs>
        <linearGradient id="a" x1="50%" x2="50%" y1="0%" y2="97.649%">
            <stop offset="0%" stop-color="#28E064"/>
            <stop offset="100%" stop-color="#088631"/>
        </linearGradient>
    </defs>
    <path fill="url(#a)" fill-rule="evenodd" d="M3.415 87.074c0-4.708 3.828-8.542 8.536-8.542 4.709 0 8.537 3.834 8.537 8.542 0 4.709-3.828 8.537-8.537 8.537-4.708 0-8.536-3.828-8.536-8.537zm44.39 40.975c0 4.709-3.828 8.537-8.537 8.537-4.708 0-8.536-3.828-8.536-8.537 0-4.708 3.828-8.536 8.536-8.536 4.709 0 8.537 3.828 8.537 8.536zM51.22 11.951c0 4.708-3.829 8.536-8.537 8.536-4.709 0-8.537-3.828-8.537-8.536 0-4.709 3.828-8.536 8.537-8.536 4.708 0 8.537 3.827 8.537 8.536zM27.317 46.096c0 4.709-3.828 8.537-8.537 8.537-4.708 0-8.536-3.828-8.536-8.537 0-4.708 3.828-8.536 8.536-8.536 4.709 0 8.537 3.828 8.537 8.536zM0 87.074c0 6.59 5.362 11.951 11.951 11.951 6.008 0 10.982-4.462 11.815-10.243h12.088c.453 0 .887-.18 1.207-.5L50.219 75.12h11.244v41.832l-10.666 7.997c-1.37-5.09-6.014-8.85-11.529-8.85-6.589 0-11.95 5.361-11.95 11.95 0 6.59 5.361 11.951 11.95 11.951 6.289 0 11.448-4.887 11.906-11.06l13.02-9.768c.43-.326.684-.826.684-1.367v-95.61c0-.454-.18-.887-.5-1.208l-9.782-9.78C54.21 4.963 49.021 0 42.683 0c-6.59 0-11.951 5.362-11.951 11.951s5.362 11.95 11.95 11.95c5.346 0 9.882-3.527 11.405-8.376l7.376 7.376v35.146h-7.83L40.476 44.89c-.32-.32-.753-.5-1.207-.5h-8.673c-.833-5.781-5.807-10.244-11.815-10.244-6.589 0-11.95 5.362-11.95 11.951 0 6.59 5.361 11.951 11.95 11.951 6.008 0 10.982-4.462 11.815-10.243h7.966L51.72 60.962c.32.32.753.5 1.207.5h8.536v10.243h-11.95c-.454 0-.888.18-1.208.5L35.147 85.368H23.766c-.833-5.782-5.807-10.247-11.815-10.247C5.362 75.12 0 80.485 0 87.074zm110.976-49.512c6.589 0 11.95 5.362 11.95 11.95a1.706 1.706 0 1 1-3.415 0c.001-4.708-3.827-8.536-8.535-8.536a1.706 1.706 0 1 1 0-3.414zm-10.244-17.073a1.706 1.706 0 0 1-1.708-1.707 5.128 5.128 0 0 0-5.122-5.122 1.706 1.706 0 1 1 0-3.415c4.709 0 8.537 3.828 8.537 8.537 0 .943-.764 1.707-1.707 1.707zM97.317 126.34c.944 0 1.707.764 1.707 1.708 0 .943-.763 1.707-1.707 1.707-6.59 0-11.951-5.362-11.951-11.951a1.706 1.706 0 1 1 3.414 0c0 4.708 3.829 8.536 8.537 8.536zm39.268-35.853a25.543 25.543 0 0 1-17.319 24.192 22.044 22.044 0 0 0-3.724-9.506 15.355 15.355 0 0 0 10.8-14.686 1.707 1.707 0 1 0-3.415 0c0 5.73-4.245 10.734-9.803 11.762a22.124 22.124 0 0 0-14.259-6.557c-.76-3.933-4.224-6.912-8.377-6.912a1.707 1.707 0 1 0 0 3.415 5.128 5.128 0 0 1 5.122 5.122 5.128 5.128 0 0 1-5.122 5.121 1.706 1.706 0 1 0 0 3.415c4.096 0 7.523-2.899 8.346-6.752 9.649.776 17.264 8.857 17.264 18.703 0 10.357-8.424 18.78-18.78 18.78-10.358 0-18.781-8.423-18.781-18.78V90.487c0-6.589 5.362-11.95 11.95-11.95a1.706 1.706 0 1 0 0-3.415c-4.826 0-9.133 2.241-11.95 5.733V46.098c0-4.195 3.042-7.684 7.036-8.396.847 3.821 4.256 6.689 8.33 6.689a1.706 1.706 0 1 0 0-3.415 5.127 5.127 0 0 1-5.123-5.121 5.128 5.128 0 0 1 5.122-5.122 1.706 1.706 0 1 0 0-3.415c-4.159 0-7.626 2.989-8.38 6.931-2.728.356-5.154 1.649-6.985 3.527V18.782c0-8.474 6.892-15.366 15.365-15.366 8.474 0 15.366 6.892 15.366 15.366 0 3.498-1.184 6.864-3.308 9.51-.93 1.159-.032 3.036 1.604 2.757 13.058-2.22 22.192 8.106 22.192 18.464 0 5.772-2.534 11-6.94 14.53a28.411 28.411 0 0 0-10.298-2.535c-.776-3.914-4.232-6.873-8.372-6.873a1.706 1.706 0 1 0 0 3.414 5.127 5.127 0 0 1 5.122 5.122 5.127 5.127 0 0 1-5.122 5.122 1.706 1.706 0 1 0 0 3.414c4.107 0 7.543-2.913 8.354-6.782 13.521.98 24.085 11.874 24.085 25.562zm-10.531-24.742a22.105 22.105 0 0 0 7.117-16.232c0-12.238-10.02-22.355-22.552-22.186a18.76 18.76 0 0 0 2.064-8.545c0-10.357-8.423-18.78-18.78-18.78-10.358 0-18.781 8.423-18.781 18.78v99.022c0 12.238 9.957 22.194 22.195 22.194 12.114 0 21.978-9.76 22.177-21.827C131.63 114.462 140 103.284 140 90.487c0-10.252-5.287-19.509-13.946-24.742z"/>
</svg>
