<?xml version="1.0" encoding="UTF-8"?>
<svg width="235px" height="235px" viewBox="0 0 235 235" version="1.1" xmlns="http://www.w3.org/2000/svg" xmlns:xlink="http://www.w3.org/1999/xlink">
    <!-- Generator: Sketch 51.3 (57544) - http://www.bohemiancoding.com/sketch -->
    <title>mission</title>
    <desc>Created with Sketch.</desc>
    <defs>
        <polygon id="path-1" points="0 0.00158243598 26.1762283 0.00158243598 26.1762283 42.8374063 0 42.8374063"></polygon>
        <polygon id="path-3" points="0.447375467 0.538958333 64.9467165 0.538958333 64.9467165 64.24925 0.447375467 64.24925"></polygon>
    </defs>
    <g id="Page-1" stroke="none" stroke-width="1" fill="none" fill-rule="evenodd">
        <g id="cognivave-homepage" transform="translate(-872.000000, -1896.000000)">
            <g id="mission" transform="translate(872.000000, 1896.000000)">
                <rect id="Rectangle-Copy" stroke="#FFFFFF" stroke-width="0.01" x="0.005" y="0.005" width="234.99" height="234.99"></rect>
                <g transform="translate(117.000000, 117.500000) rotate(-345.000000) translate(-117.000000, -117.500000) translate(65.000000, 40.000000)">
                    <g id="Group-3" transform="translate(0.000000, 59.000000)">
                        <mask id="mask-2" fill="white">
                            <use xlink:href="#path-1"></use>
                        </mask>
                        <g id="Clip-2"></g>
                        <path d="M17.344665,4.03125 C16.041915,4.03125 14.637915,4.32015625 13.139415,4.896625 C6.203115,7.568 2.946915,28.277875 4.245615,37.97975 C7.862265,36.1401562 13.182615,32.3548125 18.031815,27.5226875 C18.157365,20.45725 19.399365,13.0061562 21.728115,5.3400625 C21.636315,5.29840625 21.548565,5.251375 21.464865,5.19896875 C20.236365,4.4209375 18.859365,4.03125 17.344665,4.03125 M2.748465,42.8374063 C2.423115,42.8374063 2.097765,42.758125 1.803465,42.6035938 C1.312065,42.3455938 0.947565,41.898125 0.799065,41.3633125 C-1.439235,33.3975625 0.669465,5.375 11.678715,1.1368125 C17.177265,-0.98228125 21.121965,0.25128125 23.497965,1.70925 C24.114915,1.98203125 24.717015,2.31796875 25.292115,2.70765625 C26.033265,3.21021875 26.353215,4.13740625 26.079165,4.988 C23.461515,13.120375 22.112865,20.9880312 22.072365,28.3705937 C22.069665,28.8933125 21.863115,29.3931875 21.497265,29.76675 C15.686865,35.7020938 8.075565,41.1550312 3.397815,42.73125 C3.187215,42.8024688 2.968515,42.8374063 2.748465,42.8374063" id="Fill-1" fill="#28E064" mask="url(#mask-2)"></path>
                    </g>
                    <path d="M66.2385754,112.012923 C64.9612694,118.695624 64.8205492,125.176265 65.334719,129.170631 C74.1364942,124.784189 89.5182897,110.490113 87.8201763,103.314974 C87.0286254,99.9629185 85.3616328,97.7255384 82.8652031,96.6657268 C82.7745469,96.6282587 82.6852437,96.5827617 82.6013528,96.5319122 C77.5408395,102.743586 72.0446349,107.943621 66.2385754,112.012923 M63.816565,134 C63.48912,134 63.1643812,133.921049 62.8694101,133.767163 C62.3768896,133.5089 62.0115584,133.06196 61.8627198,132.532054 C60.5299375,127.819104 60.762667,118.524342 62.4134227,110.435249 C62.5176097,109.925415 62.8179931,109.475798 63.2496252,109.181406 C69.3668927,105.005053 75.1472438,99.4838623 80.4323681,92.7730601 C80.9871303,92.0705335 81.9410505,91.8149476 82.777253,92.1387789 C83.4240245,92.3903504 84.0410283,92.6927713 84.6147335,93.0420275 C87.1706987,94.1687464 90.4275584,96.704533 91.7738715,102.399682 C94.4678506,113.788643 72.357196,131.25011 64.4673957,133.894286 C64.2563155,133.96387 64.0357637,134 63.816565,134" id="Fill-4" fill="#28E064"></path>
                    <path d="M56.4165744,64.0447775 C55.1082755,64.0447775 53.6982954,64.3334446 52.1934127,64.9134767 C45.2262127,67.5951133 41.9561433,88.4074727 43.2671537,98.138522 C52.0835969,93.7275806 67.5147452,79.3050162 65.811923,72.0681046 C65.0160977,68.6877318 63.3458135,66.4337002 60.8471659,65.36806 C60.7468404,65.3248948 60.6505822,65.2749851 60.5570354,65.2156329 C59.321947,64.434613 57.9377261,64.0447775 56.4165744,64.0447775 M41.7609153,103 C41.4328237,103 41.1074437,102.920414 40.8118902,102.765289 C40.3170413,102.506298 39.9523446,102.057111 39.8018563,101.520244 C37.5553783,93.5238949 39.67306,65.3936893 50.726491,61.1392216 C56.2538844,59.0119878 60.2126749,60.2516377 62.6001509,61.713858 C65.1584514,62.8482928 68.4203863,65.4031317 69.773425,71.1467979 C72.4727235,82.6260369 50.3184102,100.227986 42.4130311,102.893436 C42.2015341,102.964928 41.9805468,103 41.7609153,103" id="Fill-6" fill="#28E064"></path>
                    <path d="M39.0141054,132 C38.7157994,132 38.4148059,131.933157 38.1299371,131.79265 C37.1302089,131.294738 36.7163428,130.069738 37.2054572,129.054815 C37.9901902,127.426028 38.1662176,126.01414 37.7281646,124.857347 C36.6343759,121.966728 34.7773537,119.901415 32.2081596,118.720067 C32.1329112,118.685964 32.061694,118.646404 31.9904768,118.604115 C29.5838728,117.114471 26.858807,116.720234 23.8878403,117.436409 C22.6986474,117.721515 21.6492015,118.665502 20.7677206,120.239723 C20.2194825,121.224634 18.989978,121.569762 18.0198116,121.009099 C17.0523326,120.451165 16.713715,119.20161 17.2632968,118.219427 C18.7198901,115.613914 20.6373797,114.009681 22.960673,113.453111 C27.9122841,112.26085 31.6720149,113.642727 33.981871,115.043702 C36.4247554,116.19231 39.6671537,118.565919 41.4919266,123.390893 C42.346533,125.654006 42.1221316,128.162666 40.8254411,130.852756 C40.4760737,131.57848 39.7598705,132 39.0141054,132" id="Fill-8" fill="#28E064"></path>
                    <path d="M18.7627828,148 C17.9406741,148 17.1785835,147.543049 16.8422029,146.812977 C15.7590852,144.458628 15.2482332,141.354511 15.0109523,139.166923 C14.8937076,138.084946 15.7311698,137.118521 16.8812845,137.008222 C18.0286076,136.911054 19.0600819,137.685771 19.1759308,138.767747 C19.3755259,140.604743 19.6993446,142.299927 20.1013265,143.651085 C21.5068671,143.205951 23.1552718,142.508707 24.9069635,141.614501 C25.9244801,141.097148 27.194631,141.449053 27.7459603,142.404974 C28.2972895,143.360895 27.9218273,144.557109 26.9043108,145.075775 C24.8497369,146.124924 21.8390605,147.480021 19.1591815,147.964547 C19.0265834,147.988182 18.8939852,148 18.7627828,148" id="Fill-10" fill="#28E064"></path>
                    <path d="M27.4717153,143.653981 C28.3878554,145.721537 30.0743557,148.365805 31.3850379,150.241125 C33.934181,148.041825 37.2189111,142.981823 38.5015072,138.169175 C38.941522,136.517012 39.0832896,135.061119 38.9294851,133.942649 C36.0259228,137.783357 31.5294804,141.243624 27.4717153,143.653981 M30.8955382,155 C30.2870072,155 29.6931879,154.721727 29.3026581,154.212231 C29.2531731,154.14636 24.2043718,147.505443 23.0688931,143.265474 C22.8281555,142.364783 23.2333971,141.414352 24.0492298,140.969384 C29.0699451,138.231014 35.0897212,133.507091 37.2215859,129.128656 C37.510471,128.535813 38.0681796,128.123109 38.7168336,128.022285 C39.3694998,127.925494 40.0221661,128.147306 40.4755551,128.623194 C40.9490056,129.121935 41.3301734,129.585724 41.6738931,130.080431 C43.1584413,132.205794 43.4018537,135.364934 42.3773817,139.212364 C40.6547708,145.677175 35.6848779,152.967396 31.7407945,154.81314 C31.469296,154.939506 31.180411,155 30.8955382,155" id="Fill-12" fill="#28E064"></path>
                    <path d="M25.0052685,145 C24.2949217,145 23.6059387,144.612727 23.2427538,143.930909 C22.7153347,142.936819 23.0758491,141.69591 24.0479026,141.157274 C29.0603873,138.379548 35.0702951,133.587731 37.1986651,129.146369 C37.6846918,128.13046 38.8864063,127.713188 39.8771532,128.208187 C40.8705705,128.704551 41.2818239,129.929096 40.7957972,130.943641 C38.1092976,136.550912 31.3703497,141.753183 25.9586286,144.751818 C25.6555295,144.919545 25.3283961,145 25.0052685,145" id="Fill-14" fill="#28E064"></path>
                    <path d="M16.6524652,121.4065 C15.4261488,121.967498 14.0201017,123.101514 12.5974641,124.700356 C9.15078234,128.576581 6.70367974,133.828584 6.2294672,136.995548 C8.72495883,136.972841 12.5407798,136.791184 15.0736001,136.323687 C14.7556151,131.617988 15.0749827,125.957257 16.6524652,121.4065 M5.64188607,141 C4.9271109,141 4.36718065,140.986643 4.03260504,140.969279 C3.06205926,140.917186 2.26018384,140.221282 2.10119129,139.295637 C1.30899367,134.662066 5.30039774,126.756011 9.45217689,122.089047 C12.4440018,118.725735 15.4897458,117.029386 18.3225782,117 L18.3253433,117 C18.9405753,117.008014 19.5530422,117.062778 20.2539919,117.170971 C20.9259082,117.275156 21.5010465,117.690561 21.7955283,118.28228 C22.0900101,118.873998 22.0651243,119.568566 21.7291662,120.140249 C19.2530302,124.351736 18.7497842,131.9626 19.3484257,137.638023 C19.4465863,138.560997 18.8755957,139.427872 17.9700295,139.733749 C14.9187552,140.762244 8.78579076,141 5.64188607,141" id="Fill-16" fill="#28E064"></path>
                    <path d="M16.3072376,141 C15.2620054,141 14.3653062,140.221816 14.2580324,139.175666 C13.6143894,132.966436 14.0338576,124.414534 17.1434234,119.028148 C17.7072987,118.053726 18.9629526,117.711325 19.9559232,118.264851 C20.9475185,118.81973 21.2927202,120.058057 20.7302203,121.033832 C18.267048,125.300986 17.7664368,133.013804 18.3619441,138.764244 C18.4774698,139.879415 17.6536618,140.875491 16.5190347,140.989173 C16.4488941,140.99594 16.3773782,141 16.3072376,141" id="Fill-18" fill="#28E064"></path>
                    <g id="Group-22" transform="translate(39.000000, -0.000000)">
                        <mask id="mask-4" fill="white">
                            <use xlink:href="#path-3"></use>
                        </mask>
                        <g id="Clip-21"></g>
                        <path d="M20.1131667,25.0759167 C26.9720208,25.0759167 33.8254583,26.7158125 40.0126458,29.9847708 C49.4295208,34.9572708 56.5673333,43.2772708 60.1545208,53.1274792 C63.2772292,31.2224792 55.7006667,10.5077917 53.3972292,4.87175 C47.5756667,6.08102083 26.3978542,11.3257083 9.975875,26.28925 C13.3030625,25.4794583 16.7087917,25.0759167 20.1131667,25.0759167 M60.3251458,64.24925 C60.2791042,64.24925 60.2317083,64.2478958 60.1843125,64.2438333 C59.2242083,64.1774792 58.4428542,63.4462292 58.3115,62.4928958 C56.629625,50.17675 49.0801458,39.3664375 38.1168125,33.5760208 C27.3484792,27.889875 14.3538958,27.6528958 3.35941667,32.943625 C2.49545833,33.3566458 1.4568125,33.11425 0.870458333,32.3545625 C0.284104167,31.5935208 0.309833333,30.5277917 0.931395833,29.7965417 C21.5187917,5.6070625 54.3424375,0.538416667 54.65525,0.538416667 C55.4420208,0.550604167 56.1516042,1.01779167 56.4766042,1.7355 L54.6254583,2.572375 L56.4779583,1.73820833 C57.0548333,3.01383333 70.5301458,33.3363333 62.2805625,62.7664375 C62.03275,63.6466458 61.2297292,64.24925 60.3251458,64.24925" id="Fill-20" fill="#28E064" mask="url(#mask-4)"></path>
                    </g>
                    <path d="M23.5743502,100.805727 C26.5890704,101.1749 33.9893273,102.313406 39.2788766,105.057947 C44.5495922,107.900844 49.6656033,113.381843 51.6700358,115.666939 C53.6125864,115.017519 57.8918479,113.319865 63.2769103,109.593109 C69.3574705,105.388046 75.1057522,99.8289021 80.3603248,93.0733157 C82.9149672,89.7884892 85.3646796,86.1951209 87.6421991,82.3942614 C89.1179457,79.9299679 90.5331557,77.3632762 91.850162,74.7642482 C93.9339646,70.6561941 95.6397501,66.3029233 96.9244702,61.8162654 C95.1420051,49.7319306 87.6892831,39.1539271 76.9205035,33.4573536 C66.3481313,27.8672204 53.6152769,27.5708045 42.7751987,32.6462521 C39.6730368,36.3379767 36.9408205,40.3261171 34.6498484,44.5069277 C33.2413646,47.0790088 31.9230131,49.6968996 30.7311157,52.2905382 C28.882733,56.3096675 27.3020564,60.3611331 26.0307889,64.3358 C23.4209909,72.488583 22.0770795,80.3786337 22.0367218,87.7809456 C22.0030904,94.333083 23.0147234,98.8291723 23.5743502,100.805727 M50.9893359,120 C50.3933872,120 49.8176173,119.734573 49.4288382,119.260308 C49.3683016,119.187551 43.2810152,111.806797 37.394172,108.632453 C31.4884952,105.567243 21.969459,104.694164 21.8739458,104.68608 C21.1111852,104.618713 20.4520095,104.124237 20.1721961,103.408797 C20.0820639,103.177054 17.9484868,97.5990466 18.0009518,87.7593881 C18.044,79.9447887 19.4524838,71.6478399 22.1873906,63.1016323 C23.5084326,58.9720207 25.1496458,54.7669578 27.0652913,50.6009679 C28.2948559,47.9224466 29.6562556,45.2169784 31.1118233,42.561362 C33.6018934,38.0167682 36.5856727,33.6890969 39.9811006,29.6969145 C40.1640555,29.4826867 40.3887133,29.3088792 40.6429668,29.1862709 C52.7112644,23.367089 66.9790567,23.6284739 78.8052081,29.8841954 C90.8452553,36.2517466 99.1347269,48.1393691 100.981764,61.6815309 C101.018086,61.9550419 101.000598,62.2339423 100.925264,62.5007165 C99.5557922,67.3861885 97.7141358,72.1274946 95.4487236,76.5939424 C94.0886691,79.2765057 92.6263751,81.9280801 91.1021993,84.4732143 C88.7412738,88.4141976 86.1987387,92.1436478 83.5445473,95.556472 C78.0370665,102.638116 71.9887925,108.480203 65.5705729,112.919703 C57.4869256,118.513879 51.6848336,119.892212 51.4413421,119.948801 C51.2920186,119.982485 51.1400046,120 50.9893359,120" id="Fill-23" fill="#28E064"></path>
                </g>
            </g>
        </g>
    </g>
</svg>