<svg xmlns="http://www.w3.org/2000/svg" width="136" height="140" viewBox="0 0 136 140">
    <defs>
        <linearGradient id="a" x1="50%" x2="50%" y1="0%" y2="97.649%">
            <stop offset="0%" stop-color="#28E064"/>
            <stop offset="100%" stop-color="#088631"/>
        </linearGradient>
    </defs>
    <g fill="url(#a)" fill-rule="evenodd" transform="translate(-652 -2836)">
        <path d="M775.522 2899.109c-.355-5.382-4.8-9.666-10.27-9.666H744.9v-21.357a2.123 2.123 0 1 0-4.246 0v21.357h-8.76l.003-21.121a2.124 2.124 0 0 0-4.246 0l-.002 21.121h-12.055v-21.121a2.124 2.124 0 0 0-4.246 0v21.121h-8.752v-21.357a2.123 2.123 0 1 0-4.246 0v21.357h-21.143c-5.556 0-10.068 4.416-10.294 9.919-7.758-.478-10.581-3.931-10.581-12.505 0-7.875 5.431-13.312 14.53-14.544a2.122 2.122 0 0 0 1.82-1.819c1.48-10.952 12.994-17.405 22.88-13.333a2.123 2.123 0 0 0 2.806-1.246c4.07-11.334 14-15.428 21.937-15.481 7.879.021 17.913 3.915 22.139 15.21a2.119 2.119 0 0 0 2.686 1.261c10.112-3.52 20.813 3.118 22.227 13.59a2.122 2.122 0 0 0 1.82 1.818c9.097 1.232 14.529 6.67 14.529 14.544 0 8.06-2.055 11.316-8.183 12.252zm-10.27 50.959h-88.046a6.099 6.099 0 0 1-6.09-6.092v-5.462h100.228v5.462a6.099 6.099 0 0 1-6.091 6.092zm-29.205 21.17h-32.389l13.478-16.923h5.384l13.527 16.923zm20.347-53.133a3.808 3.808 0 0 1 3.805-3.805 3.808 3.808 0 0 1 3.803 3.805 3.808 3.808 0 0 1-3.803 3.805 3.808 3.808 0 0 1-3.805-3.805zm-26.625-11.857a3.809 3.809 0 0 1 3.804 3.805 3.808 3.808 0 0 1-3.804 3.805 3.808 3.808 0 0 1-3.804-3.805 3.808 3.808 0 0 1 3.804-3.805zm-16.303 11.587l.004.001.01-.002a3.808 3.808 0 0 1 3.802 3.805 3.808 3.808 0 0 1-3.803 3.805 3.808 3.808 0 0 1-3.804-3.805c0-2.094 1.7-3.796 3.791-3.804zm-26.612.27a3.808 3.808 0 0 1-3.805 3.805 3.809 3.809 0 0 1-3.804-3.805 3.809 3.809 0 0 1 3.804-3.805 3.808 3.808 0 0 1 3.805 3.805zm3.873-2.292c-.995-3.32-4.04-5.76-7.678-5.76-4.438 0-8.05 3.612-8.05 8.052 0 4.44 3.612 8.051 8.05 8.051 3.748 0 6.878-2.586 7.771-6.06 6.638-.9 11.775-6.59 11.775-13.472v-12.934h8.752v20.22c-3.4.942-5.918 4.033-5.918 7.73 0 4.439 3.612 8.05 8.05 8.05 4.439 0 8.05-3.611 8.05-8.05 0-3.704-2.527-6.8-5.936-7.735v-20.215h12.054v8.632c-3.406.938-5.928 4.03-5.928 7.731 0 4.44 3.611 8.052 8.05 8.052s8.05-3.613 8.05-8.052c0-3.7-2.522-6.793-5.927-7.731l.001-8.632h8.76v12.934c0 6.883 5.137 12.573 11.775 13.473.893 3.473 4.024 6.06 7.77 6.06 4.44 0 8.05-3.613 8.05-8.052 0-4.44-3.61-8.052-8.05-8.052-3.636 0-6.682 2.44-7.677 5.76-4.331-.82-7.622-4.621-7.622-9.189v-12.934h20.354a6.099 6.099 0 0 1 6.09 6.092v34.485H671.116v-34.485a6.099 6.099 0 0 1 6.091-6.092h21.143v12.934c0 4.568-3.29 8.369-7.622 9.189zm80.565-47.457c-2.463-11.579-14.072-18.866-25.627-16.034-4.55-10.078-14.028-16.221-25.39-16.135-11.061.073-20.706 6.416-25.117 16.334-11.304-3.34-23.832 3.648-26.413 15.835-10.32 1.947-16.66 8.925-16.66 18.5 0 10.906 4.565 16.146 14.784 16.757v40.363c0 5.701 4.637 10.339 10.337 10.339h34.502l-13.478 16.923h-6.208a2.123 2.123 0 0 0 0 4.247h55.992a2.123 2.123 0 0 0 0-4.247h-6.53l-13.527-16.923h37.296c5.7 0 10.337-4.638 10.337-10.34v-40.584c8.744-1.144 12.36-6.061 12.36-16.534 0-9.576-6.339-16.554-16.658-18.501z"/>
        <path d="M718.526 2942.646a2.102 2.102 0 0 0-.02 2.993c.839.841 2.14.85 3.014.021a2.154 2.154 0 0 0 0-3.014c-.808-.786-2.208-.786-2.994 0"/>
    </g>
</svg>
