<svg xmlns="http://www.w3.org/2000/svg" width="32" height="31" viewBox="0 0 32 31">
    <g fill="none" fill-rule="evenodd">
        <path fill="#1BE583" d="M.5 15.5C.5 6.94 7.44 0 16 0c8.56 0 15.5 6.94 15.5 15.5C31.5 24.06 24.56 31 16 31 7.44 31 .5 24.06.5 15.5z"/>
        <path fill="#0b1d2f" d="M22.657 9.195A3.642 3.642 0 0 0 19.962 8c-2.038 0-3.692 1.696-3.692 3.787 0 .297.032.585.095.862-3.069-.158-5.79-1.664-7.612-3.958a3.855 3.855 0 0 0-.5 1.906 3.81 3.81 0 0 0 1.643 3.151 3.625 3.625 0 0 1-1.674-.471v.046c0 1.835 1.273 3.366 2.964 3.713a3.598 3.598 0 0 1-1.668.066c.47 1.504 1.833 2.6 3.45 2.629A7.293 7.293 0 0 1 7.5 21.3a10.28 10.28 0 0 0 5.661 1.7c6.793 0 10.507-5.77 10.507-10.775 0-.164-.003-.329-.01-.49a7.576 7.576 0 0 0 1.842-1.96c-.661.3-1.374.504-2.12.596a3.78 3.78 0 0 0 1.624-2.095 7.26 7.26 0 0 1-2.347.918z"/>
    </g>
</svg>
