<?xml version="1.0" encoding="UTF-8"?>
<svg width="235px" height="235px" viewBox="0 0 235 235" version="1.1" xmlns="http://www.w3.org/2000/svg" xmlns:xlink="http://www.w3.org/1999/xlink">
    <!-- Generator: Sketch 51.3 (57544) - http://www.bohemiancoding.com/sketch -->
    <title>vision</title>
    <desc>Created with Sketch.</desc>
    <defs>
        <polygon id="path-1" points="0.47885507 0.907130357 91.38 0.907130357 91.38 72.7115395 0.47885507 72.7115395"></polygon>
        <polygon id="path-3" points="0 0.180475769 43.3105304 0.180475769 43.3105304 22.9022857 0 22.9022857"></polygon>
    </defs>
    <g id="Page-1" stroke="none" stroke-width="1" fill="none" fill-rule="evenodd">
        <g id="cognivave-homepage" transform="translate(-342.000000, -1896.000000)">
            <g id="vision" transform="translate(342.000000, 1896.000000)">
                <rect id="Rectangle" stroke="#FFFFFF" stroke-width="0.01" x="0.005" y="0.005" width="234.99" height="234.99"></rect>
                <g transform="translate(22.000000, 50.000000)">
                    <g id="Group-3" transform="translate(100.000000, 0.000000)">
                        <mask id="mask-2" fill="white">
                            <use xlink:href="#path-1"></use>
                        </mask>
                        <g id="Clip-2"></g>
                        <path d="M6.37231667,30.743214 L19.4818722,66.8225163 L85.4877611,42.8723302 L72.38165,6.79474884 L6.37231667,30.743214 Z M17.9370389,72.7115395 C17.5615944,72.7115395 17.1878722,72.6306558 16.8434278,72.4688884 C16.2234278,72.1797721 15.7412056,71.6548884 15.5087056,71.0112605 L0.633872222,30.0789349 C0.39965,29.435307 0.432372222,28.7262837 0.721705556,28.1050279 C1.01276111,27.4837721 1.53631667,27.0053535 2.18042778,26.771307 L73.04815,1.0606093 C73.6905389,0.828283721 74.4035389,0.860981395 75.0218167,1.15009767 C75.6435389,1.43921395 76.1240389,1.96409767 76.3582611,2.60772558 L91.2262056,43.5366093 C91.7118722,44.875493 91.0195389,46.357214 89.6779278,46.8425163 L18.8188167,72.5566558 C18.53465,72.6599116 18.2349833,72.7115395 17.9370389,72.7115395 Z" id="Fill-1" fill="#28E064" mask="url(#mask-2)"></path>
                    </g>
                    <path d="M39.8979745,64.5853685 L46.9694714,84.0945971 L112.102043,60.4108595 L105.027099,40.9050824 L39.8979745,64.5853685 Z M45.4217736,90 C45.0477753,90 44.6737771,89.9188913 44.3273547,89.7566739 C43.7051733,89.4650278 43.2260419,88.9404099 42.9916467,88.2949918 L34.1552916,63.9192418 C33.6692662,62.5749084 34.3621109,61.0907919 35.7029894,60.6024141 L105.690644,35.1549939 C107.04014,34.6700675 108.515452,35.3603542 109.004924,36.7046876 L117.844726,61.0769862 C118.330751,62.4213196 117.637907,63.9054361 116.295305,64.3938139 L46.3042026,89.8446855 C46.0181026,89.9482285 45.7199381,90 45.4217736,90 Z" id="Fill-4" fill="#28E064"></path>
                    <g id="Group-8" transform="translate(0.000000, 69.000000)">
                        <mask id="mask-4" fill="white">
                            <use xlink:href="#path-3"></use>
                        </mask>
                        <g id="Clip-7"></g>
                        <path d="M36.87075,6.17771429 L24.9509423,11.1851429 L37.3380577,7.45142857 L36.87075,6.17771429 Z M3.52921154,22.9022857 C2.46305769,22.9022857 1.46959615,22.2491429 1.08882692,21.2068571 L0.155942308,18.6594286 C-0.314826923,17.3737143 0.311711538,15.9491429 1.58382692,15.416 L37.3605577,0.385142857 C38.01825,0.109142857 38.7555577,0.112571429 39.4115192,0.393714286 C40.0640192,0.676571429 40.5711346,1.21142857 40.8151731,1.87314286 L43.1534423,8.24171429 C43.3974808,8.90514286 43.3559423,9.63885714 43.0374808,10.2697143 C42.7190192,10.9005714 42.1513269,11.3754286 41.4694038,11.5811429 L4.28555769,22.7908571 C4.03459615,22.8662857 3.78017308,22.9022857 3.52921154,22.9022857 Z" id="Fill-6" fill="#28E064" mask="url(#mask-4)"></path>
                    </g>
                    <path d="M87.5,84.2091946 C84.582851,84.2091946 82.2091946,86.5811146 82.2091946,89.4965272 C82.2091946,92.4154126 84.582851,94.7908054 87.5,94.7908054 C90.417149,94.7908054 92.7908054,92.4154126 92.7908054,89.4965272 C92.7908054,86.5811146 90.417149,84.2091946 87.5,84.2091946 M87.5,100 C81.7108484,100 77,95.2874152 77,89.4965272 C77,83.709112 81.7108484,79 87.5,79 C93.2891516,79 98,83.709112 98,89.4965272 C98,95.2874152 93.2891516,100 87.5,100" id="Fill-9" fill="#28E064"></path>
                    <path d="M73.6082153,135 C73.2813529,135 72.9492746,134.938383 72.6293667,134.811725 C71.294099,134.277708 70.650806,132.780065 71.1915198,131.467273 L85.9733506,95.6025662 C86.5158031,94.2880632 88.0353656,93.6564856 89.3706333,94.1887909 C90.705901,94.7228077 91.349194,96.220451 90.8084802,97.5332424 L76.0266494,133.396238 C75.6145941,134.394096 74.6392228,135 73.6082153,135" id="Fill-11" fill="#28E064"></path>
                    <path d="M102.391558,135 C101.360461,135 100.385005,134.394086 99.9729136,133.39621 L85.1915365,97.5325914 C84.6507756,96.2197772 85.2941246,94.7221078 86.6295083,94.1880817 C87.9614146,93.6574789 89.4845867,94.2873558 90.0270864,95.6018816 L104.808464,131.467212 C105.349224,132.780026 104.705875,134.277695 103.370492,134.811722 C103.050556,134.938382 102.718449,135 102.391558,135" id="Fill-13" fill="#28E064"></path>
                </g>
            </g>
        </g>
    </g>
</svg>