<svg xmlns="http://www.w3.org/2000/svg" xmlns:xlink="http://www.w3.org/1999/xlink" width="216" height="32" viewBox="0 0 216 32">
    <defs>
        <path id="a" d="M0 .317h24.318v18.83H0z"/>
    </defs>
    <g fill="none" fill-rule="evenodd">
        <path fill="#28E064" d="M45.366 5.725c-2.672 1.553-5.07 2.927-7.438 4.353-.227.136-.366.596-.368.906-.023 4.022.002 8.044-.024 12.066-.006.777.314.961 1.02.948 1.848-.035 3.7-.06 5.547.008.965.035 1.286-.245 1.278-1.246-.044-5.197-.017-10.394-.015-15.59V5.724m10.862 8.998c-.067 8.391-6.666 14.823-15.13 14.747-8.222-.074-14.663-6.715-14.598-15.053C26.562 6.389 33.285-.068 41.512 0c8.204.068 14.78 6.647 14.716 14.722M70.541 18.583a8.5 8.5 0 0 1 .008-.124c.604 0 1.208.015 1.811-.003 3.821-.116 4.76-1.185 4.421-5.018-.175-1.988-.854-2.837-2.788-2.963a47.398 47.398 0 0 0-6.264.001c-2.014.137-2.747.999-2.888 2.999a13.91 13.91 0 0 0 .042 2.337c.138 1.39.787 2.135 2.173 2.385 1.148.207 2.323.263 3.485.386m-11.749 6.893c2.123 0 4.14-.01 6.156.017.198.002.393.234.588.363.624.414 1.232 1.156 1.875 1.188 2.293.115 4.612.127 6.895-.09 1.65-.158 2.324-1.043 2.483-2.722.109-1.143.021-2.303.021-3.65-.334.25-.557.351-.682.523-.945 1.298-2.265 2.043-3.81 2.06-2.976.032-5.982.097-8.925-.262-3.043-.37-4.536-1.964-4.87-5.059-.257-2.38-.208-4.84.07-7.22.329-2.818 2.013-4.315 4.811-4.79a32.428 32.428 0 0 1 9.456-.201c1.39.173 2.58.786 3.447 1.92.189.248.296.556.44.836l.42-.272c.04-.474.12-.95.111-1.424-.012-.628.213-.89.873-.873 1.457.038 2.917.034 4.374.004.603-.012.83.223.827.808-.038 6.228.022 12.46-.132 18.685-.082 3.287-2.64 5.555-6.399 6.027-4.176.524-8.36.608-12.544.033-2.94-.404-4.815-2.08-5.382-4.841-.062-.3-.062-.614-.103-1.06M203.667 12.646c1.562 0 3.126-.012 4.688.005.59.008.819-.216.8-.822-.039-1.198-.606-2.075-1.916-2.157-2.287-.145-4.594-.117-6.885-.017-1.069.046-1.766.782-2.067 1.872-.215.774-.08 1.145.797 1.13 1.527-.03 3.055-.009 4.583-.011m11.677 5.408c.291 1.995-.827 4.005-2.764 4.8-1.103.452-2.309.86-3.48.898-3.724.12-7.488.377-11.172-.02-4.708-.505-6.09-2.335-6.254-7.16-.063-1.878.025-3.773.192-5.647.246-2.76 1.946-4.585 4.85-5.042 4.378-.69 8.805-.75 13.19-.16 4.034.543 5.58 2.452 5.756 6.537.037.854-.024 1.713.046 2.563.08.972-.278 1.287-1.262 1.279-4.769-.043-9.537-.019-14.305-.018-.071 0-.146-.014-.213.001-.595.14-1.436-.389-1.741.524-.29.867.315 2.296 1.085 2.698.373.195.795.403 1.199.412 2.231.046 4.465.07 6.695.02.806-.017 1.504-.384 1.827-1.247.07-.186.346-.416.531-.419 1.947-.03 3.895-.019 5.82-.019"/>
        <g transform="translate(0 4.999)">
            <mask id="b" fill="#fff">
                <use xlink:href="#a"/>
            </mask>
            <path fill="#28E064" d="M24.2 7.978c-2.008 0-3.959.017-5.909-.023-.23-.004-.589-.283-.657-.506-.388-1.27-1.336-1.903-2.527-1.97a55.749 55.749 0 0 0-6.046-.003c-1.302.068-2.224.88-2.347 2.219a24.378 24.378 0 0 0-.014 4.03c.08 1.094.796 1.827 1.869 2.082 2.385.566 4.805.632 7.172.008.656-.173 1.149-.94 1.733-1.415.343-.278.708-.718 1.08-.737 1.632-.081 3.27-.022 4.906-.04.635-.009.858.232.858.883.002 3.257-1.866 5.652-5.106 6.117-4.447.638-8.928.73-13.385.071-3.785-.56-5.17-1.891-5.618-5.664a29.63 29.63 0 0 1-.047-6.598c.4-3.75 2.036-5.325 5.945-5.757C10.424.198 14.768.148 19.08.834c3.733.593 5.689 3.307 5.12 7.144" mask="url(#b)"/>
        </g>
        <path fill="#28E064" d="M93.03 5.836l.194 2.752c.286-.098.434-.102.474-.169C95 6.177 97.168 5.61 99.515 5.465c2.527-.155 5.07-.196 7.479.727 2.443.935 3.894 2.77 4.004 5.409.154 3.696.142 7.4.223 11.1.015.663-.162.972-.895.952a91.289 91.289 0 0 0-4.803-.006c-.686.016-.84-.275-.836-.89.021-2.67.019-5.341 0-8.012a15.398 15.398 0 0 0-.158-1.911c-.15-1.137-.777-1.899-1.901-2.18-2.138-.538-4.284-.562-6.432-.035-1.543.38-2.426 1.405-2.495 2.944-.126 2.844-.129 5.692-.166 8.54-.02 1.53-.005 1.53-1.578 1.531-1.352.002-2.705-.013-4.056.015-.629.013-.894-.206-.892-.865.016-5.377 0-10.754.038-16.13.002-.274.413-.773.65-.782 1.736-.067 3.476-.036 5.333-.036M123.469 5.834c2.284 0 4.488-.033 6.688.036.324.01.772.442.927.785 1.59 3.535 3.13 7.093 4.69 10.643.154.35.341.687.616 1.24.257-.51.439-.831.586-1.167 1.553-3.552 3.12-7.1 4.636-10.668.28-.66.617-.907 1.34-.889 2.057.05 4.116.018 6.336.018-.144.422-.211.72-.343.988-2.598 5.263-5.22 10.514-7.788 15.791-.387.796-.851 1.065-1.72 1.04-2.168-.06-4.34.012-6.51-.041-.37-.01-.913-.278-1.067-.584-2.803-5.557-5.56-11.14-8.321-16.718-.044-.088-.032-.205-.07-.474M192.055 5.833c-.225.524-.347.846-.499 1.154-2.562 5.199-5.143 10.39-7.677 15.602-.379.78-.828 1.094-1.711 1.068-2.168-.065-4.34.012-6.508-.052-.395-.012-.969-.329-1.14-.667-2.783-5.525-5.515-11.077-8.256-16.625-.044-.09-.045-.202-.103-.481h4.45c2.905 0 2.889.006 4.022 2.652 1.303 3.039 2.636 6.065 3.962 9.094.111.255.273.488.508.901.24-.449.434-.76.579-1.094 1.501-3.457 3.014-6.91 4.475-10.383.36-.858.802-1.25 1.808-1.198 1.947.1 3.903.03 6.09.03M171.343 23.65c-2.223 0-4.27.03-6.313-.035-.26-.008-.58-.463-.743-.779-1.934-3.762-3.843-7.537-5.761-11.307-.174-.341-.366-.673-.657-1.206-.281.478-.485.784-.65 1.11-1.89 3.744-3.79 7.484-5.647 11.245-.342.695-.739.998-1.54.972-1.876-.06-3.754-.02-5.764-.02.137-.365.205-.625.327-.858 2.78-5.286 5.58-10.562 8.336-15.861.362-.696.785-.961 1.564-.96 2.24.005 4.48-.104 6.719-.089.397.003.985.281 1.16.608 2.938 5.484 5.825 10.996 8.72 16.502.065.122.097.26.25.679M114.532 23.908V18.74c0-2.458-.015-4.916.007-7.373.003-.362.059-.897.291-1.055 1.99-1.351 4.025-2.634 6.176-4.02.023.474.048.747.048 1.02 0 5.164-.021 10.33.017 15.494.006.896-.254 1.159-1.144 1.123-1.737-.071-3.479-.021-5.395-.021"/>
    </g>
</svg>
