<svg xmlns="http://www.w3.org/2000/svg" width="414" height="201" viewBox="0 0 414 201">
    <g fill="none" fill-rule="evenodd">
        <path fill="#C3F2D2" d="M129.132 90.23c0 30.454-24.682 55.144-55.129 55.144s-55.128-24.69-55.128-55.144c0-30.456 24.681-55.144 55.128-55.144s55.13 24.688 55.13 55.144M361.36 148.81c0 28.768-23.313 52.088-52.072 52.088-28.76 0-52.074-23.32-52.074-52.087 0-28.767 23.314-52.087 52.074-52.087 28.76 0 52.073 23.32 52.073 52.087"/>
        <path fill="#C3F2D2" d="M396.5 167.66c0 14.136-11.457 25.597-25.59 25.597-14.134 0-25.591-11.46-25.591-25.597 0-14.14 11.457-25.598 25.59-25.598 14.134 0 25.592 11.457 25.592 25.598M391.408 125.633a5.985 5.985 0 1 1-5.984-5.985 5.985 5.985 0 0 1 5.984 5.985"/>
        <path fill="#C3F2D2" d="M413.816 156.709c0 8.087-6.556 14.64-14.642 14.64-8.086 0-14.641-6.553-14.641-14.64 0-8.092 6.555-14.647 14.641-14.647s14.642 6.555 14.642 14.647"/>
        <path fill="#282D33" fill-rule="nonzero" d="M338.185 30.723l1.417-1.14 2.01 22.963-1.03.028c-1.893.05-3.572.108-5.152.178l-.564.026-.301-.478a16.38 16.38 0 0 1-2.524-8.757 16.42 16.42 0 0 1 6.144-12.82zm-4.203 12.82c0 2.58.676 5.06 1.938 7.245 1.126-.048 2.306-.089 3.58-.126l-1.502-17.137a14.463 14.463 0 0 0-4.016 10.019zm23.448-14.31l1.39 1.013a16.426 16.426 0 0 1 6.767 13.298c0 3.14-.885 6.152-2.526 8.756l-.3.477-.564-.025a295.515 295.515 0 0 0-5.772-.196l-1.033-.026 2.038-23.297zm.076 21.409c1.45.04 2.847.089 4.201.146a14.432 14.432 0 0 0 1.939-7.244c0-4.083-1.7-7.881-4.593-10.589l-1.547 17.687zm-18.074-4.314l-.077-.886-1.93-22.041c-.78-8.887 3.302-17.358 10.511-22.341l.552-.381.552.381a24.526 24.526 0 0 1 10.512 22.34l-2.007 22.928h-18.113zm16.334-1.942l1.852-21.155a22.58 22.58 0 0 0-9.13-20.18 22.577 22.577 0 0 0-9.13 20.18l1.853 21.155h14.555zm-6.268 15.063c.177-.365.345-.72.502-1.063.808-1.763 1.282-3.117 1.282-3.684a2.795 2.795 0 0 0-5.588 0c0 .703.694 2.535 1.786 4.803.322.669.666 1.349.992 1.97.35-.668.698-1.351 1.026-2.026zm-.546 4.892c-.769.126-.769.126-.995-.038-.197-.16-.197-.16-.237-.216a1.431 1.431 0 0 1-.09-.128 6.35 6.35 0 0 1-.143-.238 31.984 31.984 0 0 1-.441-.794 65.402 65.402 0 0 1-1.315-2.58c-1.24-2.573-1.978-4.524-1.978-5.646a4.736 4.736 0 1 1 9.47 0c0 .958-.525 2.458-1.458 4.495-.164.356-.338.725-.521 1.102a76.696 76.696 0 0 1-1.91 3.664l-.031-.018c-.077.094-.188.218-.35.397zm-.464-53.905c-2.451 0-4.869.227-7.211.668l-1.994.375.96-1.788a24.651 24.651 0 0 1 7.694-8.631l.551-.381.552.381a24.667 24.667 0 0 1 7.694 8.63l.96 1.788-1.995-.375a39.038 39.038 0 0 0-7.21-.667zm0-1.941c1.856 0 3.692.123 5.496.366a22.693 22.693 0 0 0-5.496-5.81 22.678 22.678 0 0 0-5.496 5.81 41.22 41.22 0 0 1 5.496-.366z"/>
        <path fill="#28E064" d="M353.787 18.858a5.3 5.3 0 1 1-10.6 0 5.3 5.3 0 0 1 10.6 0"/>
        <path fill="#282D33" fill-rule="nonzero" d="M339.379 41.307v-1.942h18.219v1.942z"/>
        <path fill="#C3F2D2" d="M286.498 84.117c0 45.647-36.995 82.65-82.63 82.65s-82.63-37.003-82.63-82.65c0-45.647 36.995-82.651 82.63-82.651s82.63 37.004 82.63 82.65"/>
        <path fill="#282D33" fill-rule="nonzero" d="M222.683 8.751V6.81h2.03V8.75h-2.03zm-67.74 20.886v-1.942h2.03v1.942h-2.03zm20.88-8.66v-1.942h2.03v1.942h-2.03zm19.862 9.679v-1.942h2.03v1.942h-2.03zm5.602-20.376V8.338h2.03v1.942h-2.03zm-21.892 34.64v-1.942h2.03v1.941h-2.03z"/>
        <path fill="#28E064" d="M212.302 26.44a4.904 4.904 0 0 1-1.331-9.623 6.79 6.79 0 0 0-7.496 6.755 6.79 6.79 0 1 0 13.544-.706 4.903 4.903 0 0 1-4.717 3.574M97.09 114.829l.134-34.276-9.437 34.276h-11.11l-9.303-34.276.067 34.276H53.252V67.566h21.416l7.698 29.723 7.562-29.723h21.418v47.263H97.09M117.434 114.829h14.991V67.566h-14.991zM224.85 111.883c-6.09 4.486-14.054 4.352-16.063 4.352-6.893 0-13.452-1.138-19.074-5.356-2.142-1.606-3.413-3.012-5.02-5.088l11.445-7.296c1.004 1.606 1.607 2.342 2.276 2.878 2.676 2.343 7.63 3.347 10.909 3.347 4.216 0 7.162-1.271 7.162-3.614 0-.537-.269-.938-.336-1.139-.335-.67-.87-1.272-2.275-1.74-1.673-.603-4.685-1.005-8.902-1.875-6.492-1.271-9.972-2.879-12.247-4.887-1.473-1.272-4.15-4.418-4.082-9.573 0-1.272.066-4.15 1.74-7.163 4.819-8.837 17.333-8.703 19.14-8.703 2.41 0 10.91.134 17.67 5.088 1.472 1.071 2.342 2.008 3.614 3.28l-9.437 7.833c-.603-.804-.937-1.205-1.339-1.54-2.744-2.544-7.496-3.28-11.043-3.28-.335 0-2.141 0-3.547.603-.268.133-1.874.87-1.874 2.476 0 .87.535 1.674 1.205 2.143 1.205.736 4.015 1.271 5.288 1.472 1.672.268 6.09.87 10.774 2.41 2.945.938 10.24 3.548 10.24 12.988 0 7.03-4.149 10.845-6.224 12.384M176.3 111.883c-6.09 4.486-14.055 4.352-16.063 4.352-6.894 0-13.453-1.138-19.074-5.356-2.142-1.606-3.414-3.012-5.02-5.088l11.445-7.296c1.003 1.606 1.606 2.342 2.275 2.878 2.677 2.343 7.63 3.347 10.91 3.347 4.216 0 7.161-1.271 7.161-3.614 0-.537-.268-.938-.335-1.139-.335-.67-.87-1.272-2.276-1.74-1.673-.603-4.685-1.005-8.901-1.875-6.492-1.271-9.972-2.879-12.248-4.887-1.472-1.272-4.15-4.418-4.082-9.573 0-1.272.067-4.15 1.74-7.163 4.82-8.837 17.334-8.703 19.141-8.703 2.41 0 10.91.134 17.67 5.088 1.471 1.071 2.342 2.008 3.613 3.28l-9.436 7.833c-.603-.804-.937-1.205-1.34-1.54-2.744-2.544-7.495-3.28-11.042-3.28-.335 0-2.142 0-3.548.603-.267.133-1.874.87-1.874 2.476 0 .87.535 1.674 1.205 2.143 1.206.736 4.016 1.271 5.288 1.472 1.673.268 6.09.87 10.775 2.41 2.945.938 10.24 3.548 10.24 12.988 0 7.03-4.15 10.845-6.225 12.384M235.958 114.829h14.992V67.566h-14.992zM353.327 114.829L337.599 87.38l.134 27.448h-13.92V67.566h15.86L355.67 95.08l-.201-27.515h13.988v47.263h-16.13"/>
        <path fill="#282D33" fill-rule="nonzero" d="M111.346 113.858v1.942h-15.23l.137-35.25 1.941.007-.13 33.3h13.282zm-28.04-16.33l-1.88-.478 7.562-29.724 1.881.479-7.563 29.724zm35.099 17.3h-1.942V54.647h1.942v60.183zM220.54 87.437l.589-1.85c2.644.842 4.665 1.806 6.575 3.505 2.767 2.462 4.341 5.883 4.341 10.408 0 6.048-2.692 10.252-6.62 13.166-1.452 1.07-3.065 1.935-4.81 2.615-2.23.869-4.596 1.408-7.04 1.69-1.66.192-2.918.239-4.606.236h-.182v-1.942h.185c3.975.007 7.303-.378 10.938-1.793 1.593-.62 3.055-1.405 4.362-2.367 3.475-2.58 5.832-6.26 5.832-11.605 0-3.963-1.332-6.86-3.69-8.957-1.662-1.478-3.467-2.34-5.874-3.106zm116.088-.05l1.941-.01.134 27.448-1.94.01-.135-27.448zm31.858-19.82h1.94v47.263h-1.94V67.566zM356.64 95.073l-1.942.015-.2-27.515 1.94-.015.202 27.515zm-31.066 19.867l-1.941.014-.201-27.514 1.94-.015.202 27.515zM181.15 98.857h1.941c0 5.965-2.655 10.112-6.53 12.987-1.432 1.055-3.022 1.908-4.744 2.578-2.199.857-4.531 1.388-6.941 1.667-1.636.189-2.876.235-4.54.232h-.18c-8.004 0-14.166-1.561-19.379-5.472-2.024-1.518-3.322-2.858-5.132-5.197l1.534-1.189c1.712 2.211 2.892 3.429 4.763 4.832 4.829 3.624 10.595 5.084 18.215 5.084h.183c3.914.007 7.193-.372 10.773-1.766 1.569-.61 3.009-1.383 4.295-2.33 3.422-2.54 5.742-6.163 5.742-11.426zm9.8-23.945l-1.703-.93c1.917-3.517 5.085-5.918 9.13-7.391 2.08-.757 4.29-1.232 6.55-1.483a32.911 32.911 0 0 1 3.951-.209c2.447 0 4.713.164 7.373.695 3.96.79 7.6 2.236 10.695 4.505.421.306.808.612 1.183.932.365.311.715.634 1.106 1.013.2.194.402.395.677.67-.043-.042.54.546.711.716l-1.372 1.373-.715-.718c-.268-.27-.463-.463-.654-.648a21.087 21.087 0 0 0-1.013-.929 17.3 17.3 0 0 0-1.067-.84c-2.849-2.088-6.23-3.431-9.93-4.17-2.515-.502-4.664-.657-6.91-.657a31.56 31.56 0 0 0-3.82.197c-2.117.235-4.179.678-6.1 1.377-3.634 1.323-6.423 3.438-8.091 6.497zM236.896 132.27l1.373 1.373-8.463 8.465-3.602-3.603 1.372-1.373 2.23 2.23 7.09-7.092zm0 14.262l1.373 1.373-8.463 8.468-3.602-3.604 1.373-1.373 2.229 2.23 7.09-7.094zm0 14.267l1.373 1.373-8.463 8.463-3.602-3.604 1.373-1.373 2.23 2.231 7.09-7.09z"/>
        <path fill="#282D33" fill-rule="nonzero" d="M121.251 95.796l-1.372-1.373 5.752-5.75 5.75 5.75-1.372 1.373-4.378-4.377-4.38 4.377zm3.41-4.373h1.94l-.001 27.137h-1.942l.002-27.137zm-.354-46.737l-1.372-1.373 5.752-5.75 5.75 5.75-1.372 1.373-4.378-4.378-4.38 4.378zm3.41-4.374h1.94l-.002 27.138h-1.941l.002-27.138zM113.102 58.78l-1.372-1.374 5.752-5.749 5.75 5.75-1.372 1.373-4.379-4.378-4.38 4.378zm-9.66-47.991h1.94v6.578h-1.94v-6.578zm4.258 2.318v1.942h-6.576v-1.942h6.576zm66.53 163.238h1.942v6.577h-1.941v-6.577zm4.259 2.32v1.942h-6.577v-1.942h6.577zM294.93 40.334h1.941v6.579h-1.941v-6.579zm4.257 2.318v1.942h-6.576v-1.942h6.576z"/>
        <path fill="#28E064" d="M302.309 108.499c-8.773 8.781-23.003 8.773-31.79-.004-8.755-8.769-8.77-23.003.005-31.781 8.782-8.77 23.016-8.77 31.785 0 8.773 8.778 8.782 23.012 0 31.785zm5.074-36.86c-11.57-11.569-30.349-11.569-41.933 0-11.579 11.578-11.56 30.36-.009 41.928 11.593 11.58 30.368 11.59 41.942.006 11.583-11.574 11.574-30.356 0-41.934z"/>
        <path fill="#28E064" d="M291.375 97.564a7.011 7.011 0 0 1-9.915 0 7.015 7.015 0 0 1 .002-9.912 7.014 7.014 0 0 1 9.913 0 7.01 7.01 0 0 1 0 9.912zm5.948-15.863c-6.017-6.016-15.785-6.016-21.81 0-6.022 6.023-6.013 15.791-.005 21.81 6.03 6.022 15.795 6.027 21.815.002 6.026-6.02 6.02-15.79 0-21.812z"/>
        <path fill="#282D33" fill-rule="nonzero" d="M319.217 57.701l-1.184-3.552-9.059 9.063 1.184 3.55 9.06-9.06zm-12.464 4.986l12.128-12.133 2.557 7.672-12.128 12.13-2.557-7.669zm1.184 6.296l12.128-12.13 7.668 2.556-12.127 12.131-7.669-2.557zm7.144.336l9.058-9.062-3.55-1.183-9.058 9.06 3.55 1.185zm-28.339 23.67l35.876-35.886-1.372-1.373-35.876 35.886 1.372 1.373zm-1.372-1.373l35.876-35.886 1.372 1.373-35.876 35.886-1.372-1.373zM64.328 101.385v.971H46.68v-.97c0-1.732.698-4.328 2.079-4.328h13.489c1.38 0 2.08 2.6 2.08 4.327zm-2.234-1.701a5.074 5.074 0 0 0-.23-.684H49.142c-.074.17-.153.406-.228.683-.062.234-.119.488-.165.732H62.26a10.367 10.367 0 0 0-.166-.731zm-9.352 3.191V90.482c-6.144-3.829-9.987-10.646-9.987-18.148 0-2.164.321-4.288.945-6.327l.21-.687h22.936l.21.687c.622 2.04.943 4.164.943 6.327 0 7.583-3.923 14.465-10.182 18.27l-5.075 12.271zm3.529-13.613l.28-.165c5.834-3.42 9.507-9.759 9.507-16.763a19.7 19.7 0 0 0-.662-5.072H45.36a19.654 19.654 0 0 0-.664 5.072c0 7.002 3.675 13.342 9.508 16.763l.48.281V93.1l1.587-3.838zM49.934 77.83a18.905 18.905 0 0 1-.724-5.198c0-1.928.292-3.82.859-5.641l-1.898-.3-.14 11.394 1.903-.255zm-1.866.534a20.847 20.847 0 0 1-.799-5.732c0-2.125.322-4.213.946-6.218l1.98-6.36-.305 24.69-1.822-6.38zm14.546 8.011l-1.705.586 5.017-19.468h8.752l-.008.978c-.063 8.272-4.936 15.458-12.056 17.904zm10.083-16.94H67.43l-3.704 14.374c5.106-2.542 8.6-8.025 8.97-14.374zm-27.868-1.942l5.02 19.469-1.705-.586c-7.121-2.445-11.995-9.632-12.06-17.904l-.008-.979h8.753zm-1.504 1.942h-5.267c.373 6.35 3.867 11.833 8.974 14.375l-3.707-14.375zm-1.013 46.448v-6.255h26.385v6.255H42.312zm24.444-1.942v-2.372H44.253v2.372h22.503zm-23.55-2.372v-10.587h24.596v10.587H43.207zm22.654-1.941v-6.705H45.148v6.705H65.86z"/>
        <path fill="#282D33" fill-rule="nonzero" d="M60.55 105.385v1.942h-1.94v-1.942h1.94zm-3.882 0v1.942h-1.941v-1.942h1.941zm-3.882 0v1.942h-1.942v-1.942h1.942z"/>
        <path fill="#282D33" fill-rule="nonzero" d="M42.312 115.883v-6.255h26.385v6.255H42.312zm24.444-1.942v-2.372H44.253v2.372h22.503zm-23.55-2.372v-10.587h24.596v10.587H43.207zm22.654-1.941v-6.705H45.148v6.705H65.86zM128.868 168.039v1.942c-.686 0-1.369-.03-2.046-.088l.166-1.935c.623.054 1.25.08 1.88.08zm-3.748-.324l-.334 1.912a23.374 23.374 0 0 1-2.001-.441l.5-1.876c.605.161 1.217.296 1.835.405zm-3.63-.97l-.664 1.824a23.362 23.362 0 0 1-1.893-.784l.821-1.76c.568.265 1.147.505 1.736.72zm-3.422-1.6l-.974 1.68a23.522 23.522 0 0 1-1.726-1.104l1.116-1.589c.513.36 1.041.698 1.584 1.013zm-3.064-2.151l-1.249 1.487a23.634 23.634 0 0 1-1.51-1.385l1.372-1.373c.444.443.907.867 1.387 1.27zm-2.668-2.67l-1.487 1.248a23.591 23.591 0 0 1-1.247-1.626l1.59-1.114c.36.514.741 1.012 1.144 1.492zm-2.168-3.1l-1.682.969c-.341-.592-.657-1.2-.945-1.82l1.76-.818c.265.569.554 1.125.867 1.668zm-1.57-3.37l-1.824.665a23.321 23.321 0 0 1-.615-1.955l1.875-.502c.162.607.35 1.205.565 1.793zm-.971-3.638l-1.912.334a23.51 23.51 0 0 1-.265-2.033l1.935-.166c.053.627.134 1.249.242 1.865zm-.322-3.76l-1.942-.003c.001-.686.031-1.369.09-2.047l1.935.17a21.82 21.82 0 0 0-.083 1.88zm.329-3.748l-1.912-.337c.12-.676.268-1.344.445-2.003l1.875.505a21.392 21.392 0 0 0-.408 1.835zm.977-3.63l-1.823-.668c.235-.642.498-1.273.788-1.892l1.758.825a21.39 21.39 0 0 0-.723 1.735zm1.606-3.417l-1.678-.978a23.5 23.5 0 0 1 1.108-1.724l1.585 1.12c-.361.512-.7 1.04-1.015 1.582zm2.157-3.06l-1.483-1.252a23.62 23.62 0 0 1 1.388-1.507l1.369 1.377c-.445.442-.87.903-1.274 1.383zm2.676-2.66l-1.244-1.492a23.588 23.588 0 0 1 1.629-1.243l1.11 1.593c-.515.358-1.014.74-1.495 1.141zm3.106-2.162l-.965-1.685c.593-.34 1.2-.654 1.821-.94l.814 1.763c-.57.263-1.127.55-1.67.862zm3.37-1.561l-.66-1.826a23.343 23.343 0 0 1 1.957-.612l.497 1.877c-.606.16-1.205.348-1.793.56zm3.642-.965l-.33-1.913c.671-.116 1.35-.203 2.032-.26l.163 1.935c-.627.052-1.249.132-1.865.238zm3.76-.315l.005-1.942c.686.002 1.368.033 2.045.094l-.172 1.934a21.853 21.853 0 0 0-1.878-.086zm3.745.334l.34-1.911c.675.12 1.342.269 2 .447l-.506 1.874c-.604-.163-1.216-.3-1.834-.41zm3.629.982l.67-1.823c.642.236 1.273.5 1.891.791l-.827 1.757a21.387 21.387 0 0 0-1.734-.725zm3.416 1.61l.98-1.677c.59.345 1.164.715 1.722 1.11l-1.121 1.585a21.542 21.542 0 0 0-1.58-1.018zm3.056 2.161l1.254-1.482c.521.442 1.023.905 1.505 1.39l-1.378 1.368c-.442-.445-.902-.87-1.381-1.276zm2.658 2.681l1.492-1.242c.437.526.851 1.07 1.241 1.631l-1.594 1.108a21.616 21.616 0 0 0-1.139-1.497zm2.155 3.109l1.686-.962c.339.593.651 1.202.937 1.823l-1.764.81a21.467 21.467 0 0 0-.859-1.671zm1.555 3.375l1.827-.657c.23.643.433 1.296.607 1.959l-1.877.493a21.379 21.379 0 0 0-.557-1.795zm.956 3.643l1.913-.326c.115.671.2 1.35.256 2.033l-1.935.158c-.051-.627-.13-1.25-.234-1.865zm.306 3.762l1.941.01a23.818 23.818 0 0 1-.098 2.046l-1.933-.177c.057-.622.087-1.249.09-1.879zm-.343 3.745l1.91.345a23.39 23.39 0 0 1-.451 1.999l-1.873-.51c.164-.604.302-1.215.414-1.834zm-.99 3.628l1.822.673a23.375 23.375 0 0 1-.795 1.89l-1.755-.83c.268-.567.511-1.145.729-1.733zm-1.616 3.414l1.674.983a23.52 23.52 0 0 1-1.113 1.72l-1.582-1.124c.363-.511.703-1.038 1.02-1.579zm-2.166 3.052l1.48 1.257c-.442.521-.907 1.022-1.392 1.503l-1.366-1.38a21.67 21.67 0 0 0 1.278-1.38zm-2.684 2.655l1.24 1.494c-.527.437-1.071.85-1.633 1.239l-1.105-1.597a21.609 21.609 0 0 0 1.498-1.136zm-3.112 2.151l.959 1.688c-.594.338-1.203.65-1.824.934l-.808-1.765c.57-.261 1.128-.547 1.673-.857zm-3.377 1.55l.653 1.828c-.643.23-1.297.431-1.96.604l-.489-1.879a21.347 21.347 0 0 0 1.796-.554zm-3.644.949l.322 1.915c-.672.113-1.35.197-2.034.251l-.154-1.935c.627-.05 1.25-.127 1.866-.231z"/>
        <path fill="#C3F2D2" d="M128.86 156.068c-5.294 0-9.583-4.291-9.583-9.583 0-5.288 4.289-9.574 9.582-9.574a9.57 9.57 0 0 1 9.573 9.574c0 5.292-4.28 9.583-9.573 9.583"/>
        <path fill="#282D33" fill-rule="nonzero" d="M123.925 142.773v-4.969a2.671 2.671 0 0 0-5.342 0v4.969a2.674 2.674 0 0 0 2.67 2.674c1.475 0 2.672-1.2 2.672-2.674zm1.942 0a4.617 4.617 0 0 1-4.614 4.615 4.616 4.616 0 0 1-4.611-4.615v-4.969a4.612 4.612 0 1 1 9.225 0v4.969zm13.259 12.402v-4.971a2.67 2.67 0 0 0-5.343 0v4.97a2.67 2.67 0 0 0 5.343 0zm1.941 0a4.612 4.612 0 0 1-9.225 0v-4.971a4.612 4.612 0 0 1 9.225 0v4.97zm1.233-11.625l-10.507-10.511 10.504.003.003 10.508zm-1.944-8.567l-3.876-.001 3.877 3.878-.001-3.877zm.184-1.553l1.373 1.373-24.847 24.85-1.372-1.374 24.846-24.85zm1.373 1.373l-24.847 24.85-1.372-1.374 24.846-24.85 1.373 1.374zm93.834-21.384h16.175v2.497l-8.085 13.92-8.092-13.92.002-2.497zm1.92 1.942l-.112-.195.052.195h.06zm.02.032l6.15 10.578 6.143-10.578v-.032h-12.293v.032zm12.372-.032l.053-.194-.113.194h.06zm3.27-51.144l-17.622 56.55v-56.55h17.621zm-15.681 1.942v41.853L250.69 66.16h-13.042zm13.941-2.93h-15.51V59.345c-.003-1.12 1.158-1.623 2.468-1.623h10.581c1.306 0 2.464.504 2.461 1.62v3.887zm-1.941-3.505a2.13 2.13 0 0 0-.519-.06h-10.582c-.2 0-.383.023-.526.06v1.563h11.627v-1.563zm-11.627-.382v0zm11.627-.002v.006-.006zm-8.126 63.822a3.057 3.057 0 0 1 4.324 0l.687-1.657h-5.698l.687 1.657zm-1.373-1.373a4.998 4.998 0 0 1 7.07 0l1.656 1.658h-10.383l1.657-1.658zM220.64 135.689v1.942h-23.937v-1.942h23.936zm0 16.301v1.942h-44.817v-1.942h44.816zM276.049 152.592c.28 18.945 15.749 34.253 34.752 34.253 19.174 0 34.723-15.583 34.723-34.777v-44.705l-69.475 45.229zm71.416-.524c0 20.266-16.417 36.718-36.664 36.718-20.25 0-36.697-16.46-36.697-36.718v-.527l73.36-47.759v48.286zm-31.733-16.938v-.198l23.01-53.978v54.178c0 6.355-5.151 11.509-11.503 11.509-6.359 0-11.509-5.153-11.507-11.511zm11.507 9.569c5.28 0 9.563-4.284 9.563-9.567V90.458l-19.127 44.866a9.563 9.563 0 0 0 9.564 9.375zm-13.696-21.387c-14.662-1.622-27.958 8.836-29.797 23.527-1.856 14.825 8.653 28.347 23.472 30.207 14.691 1.84 28.102-8.471 30.147-23.086l-23.822-30.648zm25.8 30.493c-1.988 15.888-16.479 27.157-32.367 25.168-15.882-1.994-27.145-16.486-25.157-32.375 1.99-15.888 16.48-27.156 32.362-25.166l.399.05 24.814 31.924-.05.4zm-47.752-5.004c-.751 10.053 6.512 19.037 16.622 20.304 10.114 1.262 19.367-5.652 21.117-15.576l-37.74-4.728zm39.81 4.009c-1.438 11.498-11.928 19.657-23.429 18.221-11.497-1.44-19.652-11.936-18.211-23.438l.12-.963 41.64 5.217-.12.963zm33.955-58.438v72.414a8.227 8.227 0 1 0 16.453.106l-16.453-72.52zm8.225 82.59c-5.613 0-10.166-4.557-10.166-10.176V77.041l20.336 89.636c.003 5.729-4.55 10.284-10.17 10.284zm-17.485-14.579h-1.942v-49.17h1.942v49.17zm-1.942 0v-49.17h1.942v49.17h-1.942zm4.466 12.734l-.238-.466 13.491-23.828.522-.034a16.734 16.734 0 0 1 16.019 9.08c4.211 8.231.955 18.32-7.273 22.524-8.227 4.215-18.314.955-22.52-7.276zm21.637 5.548c7.274-3.717 10.152-12.635 6.428-19.912a14.793 14.793 0 0 0-13.643-8.053l-12.45 21.99c3.852 6.938 12.546 9.622 19.665 5.975zM257.543 42.293L245.72 30.467h11.823v11.826zm-1.941-9.884h-5.195l5.195 5.196V32.41zm-12.257 10.166l-38.042 11.503L230.076 29.3l13.269 13.275zm-13.269-10.529l-17.93 17.934 27.534-8.326-9.604-9.608zm3.03-6.01h5.428l-.641-1.442.64-1.444h-7.503l2.076 2.887zm8.414 1.943h-9.41l-4.867-6.77h14.277l-1.503 3.385 1.503 3.385zm-10.768 20.993l-.84-.84-5.21 5.212 6.05-4.372zm24.968-18.037l1.255 1.474-21.39 21.396-4.833-4.833 24.968-18.037zM235.584 51.06l11.453-11.456-13.3 9.608 1.847 1.848zm-19.569 10.955l-1.254-1.474 15.151-15.154 3.825 3.825-17.722 12.803zm14.979-30.888h-1.941V18.665h1.94v12.461zm-1.941 0V18.665h1.94v12.461h-1.94zm-166.24-8.062h1.94v2.812h-1.94v-2.812zm1.94 0v2.812h-1.94v-2.812h1.94zm-6.96.917l1.875-.502.727 2.716-1.875.502-.727-2.716zm1.875-.502l.727 2.716-1.875.502-.727-2.716 1.875-.502zm-6.486 2.687l1.681-.97 1.406 2.434-1.681.971-1.406-2.435zm1.681-.97l1.406 2.434-1.681.971-1.406-2.435 1.681-.97zm-5.57 4.274l1.372-1.374 1.989 1.99-1.373 1.372-1.988-1.988zm1.372-1.374l1.989 1.99-1.373 1.372-1.988-1.988 1.372-1.374zm-4.274 5.572l2.435 1.406.97-1.681-2.434-1.407-.97 1.682zm.97-1.682l2.436 1.407-.971 1.681-2.435-1.406.97-1.682zm-2.686 6.488l2.716.728.503-1.875-2.716-.728-.503 1.875zm.503-1.875l2.716.728-.503 1.875-2.716-.728.503-1.875zm-.917 6.962h2.811V41.62h-2.81v1.941zm0-1.942h2.812v1.943H44.26v-1.943zm.917 6.963l2.714-.727-.502-1.876-2.715.727.503 1.876zm-.503-1.876l2.715-.727.502 1.876-2.714.727-.503-1.876zm2.687 6.488l2.434-1.405-.97-1.681-2.435 1.404.97 1.682zm-.97-1.682l2.434-1.404.97 1.681-2.434 1.405-.97-1.682zm34.782.003l-.971 1.681-2.434-1.406.97-1.682 2.435 1.407zm-.971 1.681l.97-1.681-2.433-1.407-.971 1.682 2.434 1.406zm2.687-6.488l-.503 1.875-2.714-.727.502-1.876 2.715.728zm-.503 1.875l.503-1.875-2.715-.728-.502 1.876 2.714.727zm.917-6.962v1.942h-2.81V41.62h2.81zm0 1.942h-2.81V41.62h2.81v1.942zm-.916-6.962l.502 1.876-2.715.727-.502-1.876 2.715-.727zm.502 1.876l-.502-1.876-2.715.727.502 1.876 2.715-.727zm-2.686-6.49l.97 1.682-2.433 1.406-.971-1.681 2.434-1.406zm.97 1.682l-2.433 1.406-.971-1.681 2.434-1.406.97 1.681zM76.9 28.1l1.373 1.372-1.987 1.989-1.373-1.373 1.987-1.989zm1.373 1.372l-1.987 1.989-1.373-1.373 1.987-1.989 1.373 1.373zm-5.57-4.275l1.681.971-1.405 2.435-1.681-.97 1.405-2.436zm1.681.971l-1.405 2.435-1.681-.97 1.405-2.436 1.681.971zm-6.486-2.688l1.875.503-.727 2.716-1.875-.502.727-2.717zm1.875.503l-.727 2.716-1.875-.502.727-2.717 1.875.503zm3.303 18.947c0-5.135-4.16-9.296-9.293-9.296-5.133 0-9.293 4.16-9.293 9.296a9.294 9.294 0 1 0 18.586 0zm1.941 0c0 6.205-5.03 11.236-11.234 11.236S52.55 49.135 52.55 42.929c0-6.208 5.03-11.238 11.234-11.238 6.205 0 11.234 5.03 11.234 11.238zM67.39 40.19l-1.774 4.3-3.842-1.471-.083-.053c-.933-.594-1.513-1.338-1.513-2.286V39.4a2.85 2.85 0 0 1 2.851-2.852h1.51a2.85 2.85 0 0 1 2.85 2.852v.791zm-1.942-.791a.91.91 0 0 0-.909-.91h-1.51a.91.91 0 0 0-.91.91v1.281c0 .13.16.345.537.597l1.887.723.905-2.194V39.4zm-5.27 5.919l1.898-4.265 3.686 1.42.081.05c.939.596 1.547 1.37 1.547 2.319v1.281a2.851 2.851 0 0 1-2.85 2.852h-1.51a2.851 2.851 0 0 1-2.852-2.852v-.805zm1.942.805c0 .503.407.91.91.91h1.51a.91.91 0 0 0 .908-.91v-1.281c0-.127-.185-.37-.569-.629l-1.78-.685-.98 2.202v.393zm.808-11.18h1.941v2.809h-1.94v-2.81zm1.941 0v2.809h-1.94v-2.81h1.94zm-1.94 12.607h1.94v2.81h-1.94v-2.81zm1.94 0v2.81h-1.94v-2.81h1.94zM7.472 118.26l-1.774 4.3-3.842-1.472-.083-.052C.84 120.44.26 119.696.26 118.749v-1.28a2.852 2.852 0 0 1 2.852-2.853h1.51a2.851 2.851 0 0 1 2.85 2.852v.791zm-1.941-.79a.91.91 0 0 0-.91-.912h-1.51a.91.91 0 0 0-.91.911v1.28c0 .13.161.345.537.598l1.887.723.906-2.195v-.406zm-5.27 5.918l1.897-4.265 3.686 1.42.08.05c.94.596 1.548 1.369 1.548 2.319v1.28a2.85 2.85 0 0 1-2.85 2.852h-1.51a2.851 2.851 0 0 1-2.852-2.851v-.805zm1.94.805c0 .502.408.91.91.91h1.51a.91.91 0 0 0 .91-.91v-1.281c0-.128-.185-.37-.57-.629l-1.78-.685-.98 2.202v.393zm.81-11.181h1.94v2.81h-1.94v-2.81zm1.94 0v2.81h-1.94v-2.81h1.94zm-1.94 12.607h1.94v2.81h-1.94v-2.81zm1.94 0v2.81h-1.94v-2.81h1.94zm192.723-75.833l-1.831 4.44-3.967-1.519-.082-.052c-.964-.614-1.56-1.378-1.56-2.35v-1.336a2.933 2.933 0 0 1 2.933-2.934h1.575a2.932 2.932 0 0 1 2.932 2.934v.817zm-1.941-.817a.99.99 0 0 0-.99-.992h-1.576a.992.992 0 0 0-.992.992v1.336c0 .153.177.388.583.66l2.012.771.963-2.335v-.432z"/>
    </g>
</svg>
