<svg xmlns="http://www.w3.org/2000/svg" width="417" height="202" viewBox="0 0 417 202">
    <g fill="none" fill-rule="evenodd">
        <path fill="#C3F2D2" d="M54.555 31.689c.044-.386.073-.774.073-1.172 0-5.46-4.423-9.887-9.882-9.887-.926 0-1.821.137-2.672.375-.968-7.07-7.025-12.521-14.362-12.521-8.01 0-14.502 6.497-14.502 14.506v.097c-4.41.504-7.836 4.246-7.836 8.794 0 4.89 3.96 8.854 8.85 8.854h39.803c.001-.006.005-.012.007-.02.127.011.253.02.382.02a4.525 4.525 0 0 0 .139-9.046M136.218 148.163V99.962c8.197-8.22 13.263-19.559 13.263-32.08 0-25.081-20.32-45.42-45.395-45.42-25.071 0-45.4 20.339-45.4 45.42 0 .688.024 1.37.054 2.053l-6.338 10.99-8.338 14.444H54.61V113.3c0 6.764 5.477 12.249 12.239 12.249h19.389v22.613"/>
        <path fill="#C3F2D2" d="M219.665 154.221l6.685-16.13-13.836-7.139a47.349 47.349 0 0 0 .418-16.993l14.263-7.348-6.676-16.132-14.825 4.74a47.282 47.282 0 0 0-11.718-12.302l4.89-15.293-16.122-6.685-7.134 13.84a47.198 47.198 0 0 0-16.983-.416l-7.343-14.266-16.128 6.673 4.737 14.831a47.239 47.239 0 0 0-12.295 11.726l-15.283-4.894-6.686 16.13 13.837 7.138a47.201 47.201 0 0 0-.415 16.989l-14.264 7.35 6.673 16.133 14.823-4.736a47.187 47.187 0 0 0 11.722 12.3l-4.893 15.291 16.12 6.687 7.136-13.843a47.265 47.265 0 0 0 16.982.42l7.345 14.27 16.128-6.679-4.738-14.831a47.254 47.254 0 0 0 12.297-11.725l15.283 4.894M322.478 158.917l3.505-8.459-7.255-3.743c.62-2.986.676-6 .219-8.91l7.48-3.854-3.501-8.46-7.773 2.486a24.826 24.826 0 0 0-6.146-6.451l2.564-8.019-8.453-3.507-3.741 7.259a24.763 24.763 0 0 0-8.907-.219l-3.85-7.48-8.458 3.499 2.484 7.777a24.763 24.763 0 0 0-6.448 6.148l-8.013-2.565-3.507 8.458 7.257 3.743c-.621 2.986-.679 6-.218 8.908l-7.48 3.855 3.499 8.46 7.774-2.483a24.747 24.747 0 0 0 6.147 6.45l-2.566 8.018 8.454 3.506 3.74-7.258c2.986.62 5.999.678 8.907.22l3.85 7.483 8.457-3.502-2.484-7.778c2.47-1.62 4.66-3.69 6.449-6.149l8.014 2.567"/>
        <path fill="#282D33" fill-rule="nonzero" d="M300.713 73.618l-1.72-1.29 19.242-25.65 16.984 28.343-1.844 1.106-15.34-25.6-17.322 23.091zm2.732-44.138h14.979v2.15h-11.996l1.351 4.054-1.351 4.056h7.753v2.15h-10.736l2.069-6.206-2.069-6.204zm15.68 20.085h-2.15V25.688h2.15v23.877z"/>
        <path fill="#C3F2D2" d="M388.362 45.413l-9.515 10.584h11.014v65.817h16.032V55.997h11.015l-19.03-21.169-9.516 10.585M268.876 33.853l-8.788 9.777h10.173v48.335h14.808V43.63h10.175l-17.578-19.555-8.79 9.778"/>
        <path fill="#28E064" d="M348.868 127.302l-18.96-33.097.161 33.097h-16.782v-56.99h19.123l19.283 33.177-.243-33.177h16.863v56.99h-19.445"/>
        <path fill="#282D33" fill-rule="nonzero" d="M338.818 30.962L359.99 7.414l21.17 23.548h-13.27v-2.15h8.445l-16.345-18.183-16.346 18.182h9.518v49.191h-2.15v-47.04z"/>
        <path fill="#28E064" d="M306.323 98.817c0 16.04-12.996 29.043-29.029 29.043-16.032 0-29.029-13.003-29.029-29.043s12.997-29.043 29.03-29.043c16.032 0 29.028 13.003 29.028 29.043"/>
        <path fill="#C3F2D2" d="M116.466 201.741c23.958 0 43.382-19.432 43.382-43.402 0-23.971-19.424-43.404-43.382-43.404-23.96 0-43.384 19.433-43.384 43.404 0 23.97 19.423 43.402 43.384 43.402"/>
        <path fill="#282D33" fill-rule="nonzero" d="M115.133 132.677h2.15v5.277h-2.15v-5.277zm2.15 0v5.277h-2.15v-5.277h2.15zm10.69 2.866l1.862 1.075-2.637 4.57-1.861-1.076 2.637-4.57zm1.862 1.075l-2.637 4.57-1.861-1.076 2.637-4.57 1.861 1.076zm7.826 7.83l1.075 1.863-4.567 2.638-1.075-1.862 4.567-2.639zm1.075 1.863l-4.567 2.638-1.075-1.862 4.567-2.639 1.075 1.863zm2.865 10.696v2.15h-5.274v-2.15h5.274zm0 2.15h-5.274v-2.15h5.274v2.15zm-2.863 10.696l-1.075 1.863-4.57-2.64 1.076-1.863 4.569 2.64zm-1.075 1.863l1.075-1.863-4.57-2.64-1.074 1.863 4.569 2.64zm-7.828 7.83l-1.861 1.075-2.637-4.57 1.861-1.075 2.637 4.57zm-1.861 1.075l1.861-1.075-2.637-4.57-1.861 1.075 2.637 4.57zm-10.691 2.866v-5.277h-2.149v5.277h2.149zm-2.15 0h2.15v-5.277h-2.149v5.277zm-10.691-2.866l2.638-4.57-1.861-1.075-2.639 4.57 1.862 1.075zm-1.862-1.076l1.862 1.076 2.638-4.57-1.861-1.075-2.639 4.57zm-7.825-7.83l4.569-2.637-1.075-1.863-4.568 2.638 1.074 1.863zm-1.074-1.862l4.568-2.638 1.075 1.863-4.569 2.638-1.074-1.863zm-2.865-10.695v-2.151h5.275v2.15h-5.275zm0-2.151h5.275v2.15h-5.275v-2.15zm2.864-10.696l4.568 2.639 1.075-1.862-4.568-2.64-1.075 1.863zm1.075-1.863l4.568 2.64-1.075 1.862-4.568-2.64 1.075-1.862zm7.826-7.83l1.862-1.075 2.636 4.571-1.861 1.075-2.637-4.571zm1.862-1.075l2.636 4.571-1.861 1.075-2.637-4.571 1.862-1.075zm9.78 20.763a2.662 2.662 0 0 1 3.76-.21 2.662 2.662 0 1 1-3.549 3.972 2.665 2.665 0 0 1-.21-3.762zm1.645 2.159a.513.513 0 1 0 .683-.766.513.513 0 0 0-.683.766zm11.648-14.646l1.602 1.433-11.05 12.362-1.602-1.434 11.05-12.361zm1.602 1.433l-11.05 12.362-1.602-1.434 11.05-12.361 1.602 1.433zm-25.195 3.271l10.881 9.736 1.433-1.603-10.881-9.736-1.433 1.603zm1.433-1.603l10.881 9.736-1.433 1.603-10.88-9.736 1.432-1.603z"/>
        <path fill="#28E064" d="M113.608 127.302H94.81l-19.04-56.99h18.395l10.167 34.953 10.085-34.953h18.476l-19.284 56.99M136.492 127.302h18.073v-56.99h-18.073zM207.471 123.455c-7.341 5.409-16.943 5.247-19.364 5.247-8.31 0-16.216-1.372-22.993-6.458-2.582-1.937-4.115-3.631-6.052-6.134l13.797-8.799c1.21 1.938 1.937 2.825 2.744 3.47 3.227 2.827 9.196 4.037 13.15 4.037 5.084 0 8.634-1.534 8.634-4.359 0-.645-.323-1.13-.404-1.372-.404-.807-1.05-1.534-2.743-2.099-2.017-.727-5.648-1.21-10.731-2.26-7.826-1.534-12.022-3.471-14.765-5.893-1.775-1.533-5.002-5.328-4.921-11.543 0-1.534.08-5.005 2.097-8.637 5.81-10.655 20.897-10.494 23.076-10.494 2.904 0 13.15.162 21.3 6.135 1.774 1.292 2.823 2.421 4.356 3.955l-11.376 9.445c-.726-.969-1.13-1.453-1.614-1.856-3.307-3.068-9.036-3.957-13.311-3.957-.404 0-2.583 0-4.277.728-.324.16-2.26 1.049-2.26 2.986 0 1.05.646 2.018 1.453 2.583 1.452.888 4.84 1.534 6.374 1.776 2.017.323 7.342 1.049 12.99 2.906 3.55 1.13 12.344 4.278 12.344 15.66 0 8.475-5.003 13.077-7.504 14.933"/>
        <path fill="#282D33" fill-rule="nonzero" d="M201.844 94.146l.652-2.05c3.176 1.011 5.602 2.17 7.892 4.207 3.316 2.95 5.201 7.05 5.201 12.478 0 7.258-3.228 12.3-7.94 15.799-1.745 1.285-3.682 2.324-5.78 3.141-2.68 1.044-5.524 1.692-8.463 2.032-1.995.23-3.508.287-5.54.283h-.22c-9.768 0-17.284-1.904-23.638-6.673l1.29-1.72c5.93 4.45 13.006 6.242 22.349 6.242h.223c4.802.009 8.824-.456 13.22-2.168 1.927-.75 3.698-1.7 5.28-2.867 4.213-3.126 7.07-7.589 7.07-14.069 0-4.806-1.618-8.324-4.48-10.871-2.016-1.793-4.203-2.837-7.116-3.764zm-7.7 12.09l-.73 2.023c-.522-.189-1.205-.372-2.115-.573-1.002-.22-6.644-1.27-8.457-1.644-7.525-1.474-12.143-3.381-15.26-6.134-3.12-2.694-5.365-6.922-5.294-12.357 0-3.211.512-6.062 2.232-9.16l1.88 1.045c-1.51 2.718-1.963 5.236-1.963 8.13-.062 4.755 1.878 8.407 4.558 10.722 2.796 2.468 7.077 4.236 14.27 5.646 1.79.37 7.452 1.422 8.495 1.652.993.219 1.758.424 2.383.65z"/>
        <path fill="#28E064" d="M222.472 127.302h18.071v-56.99h-18.071z"/>
        <path fill="#282D33" fill-rule="nonzero" d="M113.61 126.138v2.15H94.812v-2.15h18.798zm0 2.15H94.812v-2.15h18.798v2.15zm110.383-2.15h15.529v-48.97l-15.529 48.97zm17.678 2.15h-20.615l20.615-65.01v65.01zM297.96 99.02c0-11.377-9.22-20.601-20.593-20.601-11.371 0-20.59 9.224-20.59 20.6 0 11.38 9.218 20.604 20.59 20.604 11.374 0 20.593-9.224 20.593-20.603zm2.15 0c0 12.566-10.182 22.753-22.743 22.753-12.559 0-22.74-10.187-22.74-22.753 0-12.565 10.182-22.752 22.74-22.752 12.56 0 22.743 10.187 22.743 22.752zm-24.3-14.641c8.082-.86 15.331 4.998 16.19 13.084.861 8.085-4.993 15.337-13.074 16.199-8.083.86-15.332-4.997-16.193-13.083a14.684 14.684 0 0 1 .503-5.657l.539-1.855 1.292 1.436a4.259 4.259 0 0 0 3.63 1.398 4.276 4.276 0 0 0 3.799-4.704 4.262 4.262 0 0 0-2.131-3.256l-1.679-.96 1.702-.92a14.655 14.655 0 0 1 5.423-1.682zm-10.94 15.972c.736 6.905 6.926 11.906 13.828 11.172 6.901-.735 11.9-6.928 11.165-13.833-.734-6.905-6.924-11.907-13.825-11.173a12.477 12.477 0 0 0-3.106.74 6.426 6.426 0 0 1-4.008 10.782 6.386 6.386 0 0 1-3.983-.881 12.515 12.515 0 0 0-.07 3.193zm12.498-16.664c13.314 0 25.471 5.6 32.48 14.676l.507.657-.508.657c-7.008 9.077-19.165 14.676-32.479 14.676s-25.471-5.6-32.478-14.676l-.507-.657.507-.657c7.007-9.076 19.165-14.676 32.478-14.676zm0 2.15c-12.338 0-23.591 5.036-30.254 13.183 6.663 8.147 17.916 13.183 30.254 13.183 12.339 0 23.592-5.036 30.256-13.183-6.664-8.147-17.918-13.182-30.256-13.182zM94.331 94.806l-.067-1.003c-.131-1.944-.548-3.585-1.268-4.545-2.896-3.729-4.827-7.65-5.969-11.533-.722-2.455-1.04-4.64-1.04-5.727 0-9.954 8.058-18.016 18.006-18.016 9.95 0 18.008 8.062 18.008 18.016 0 1.08-.322 3.273-1.045 5.73-1.144 3.884-3.075 7.804-5.957 11.517-.735.976-1.161 2.619-1.305 4.565l-.074.996H94.331zm17.317-2.15c.237-1.897.745-3.523 1.643-4.717 2.72-3.505 4.532-7.183 5.603-10.819.383-1.302.645-2.516.805-3.607.103-.702.152-1.29.152-1.515 0-8.766-7.096-15.866-15.858-15.866-8.761 0-15.857 7.1-15.857 15.866 0 .228.049.814.151 1.516.159 1.09.42 2.303.803 3.605 1.068 3.634 2.88 7.313 5.615 10.834.887 1.184 1.386 2.808 1.611 4.703h15.332zM93.033 68.943l7.949-7.913c-3.846 1.058-6.888 4.089-7.949 7.913zm-2.555 2.99c0-7.404 6.072-13.458 13.515-13.458h2.604L90.477 74.52v-2.587zm10.071 21.56l-3.352-18.62-2.116.382 3.353 18.619 2.115-.381zm-2.115.381l2.115-.381-3.352-18.62-2.116.382 3.353 18.619zm11.122 0l3.352-18.619-2.116-.381-3.352 18.62 2.116.38zm-2.116-.38l2.116.38 3.352-18.619-2.116-.381-3.352 18.62zm-8.615-14.898l-7.96-3.315h26.264l-7.97 3.315-2.586-1.075-2.584 1.075-2.582-1.075-2.582 1.075zm10.746-2.157h-.825l.412-.172.413.172zm1.76-1.075l.413 2.068h-15.5l.413-2.068 2.168.903 2.582-1.075 2.582 1.075 2.583-1.075 2.586 1.075 2.173-.903zm-6.93 1.075h-.825l.413-.172.413.172zm-5.163 0h-.826l.413-.172.413.172zm-6.254 18.566v-2.15h22.02v2.15h-22.02zm0-2.15h22.02v2.15h-22.02v-2.15zm0 6.43v-2.151h22.02v2.15h-22.02zm0-2.151h22.02v2.15h-22.02v-2.15zm4.531 6.431v-2.15h12.957v2.15H97.515zm0-2.15h12.957v2.15H97.515v-2.15zm-.901-2.764h-2.15v-4.494h2.15v4.494zm-2.15 0v-4.494h2.15v4.494h-2.15zm8.384-56.834h2.15v3.9h-2.15v-3.9zm2.15 0v3.9h-2.15v-3.9h2.15zm-9.122 1.201l2.076-.557 1.01 3.769-2.077.556-1.01-3.768zm2.076-.557l1.01 3.769-2.077.556-1.01-3.768 2.077-.557zm-8.5 3.523l1.863-1.075 1.948 3.379-1.862 1.075-1.948-3.38zm1.863-1.075l1.948 3.379-1.862 1.075-1.948-3.38 1.862-1.074zm-7.3 5.603l1.52-1.52 2.758 2.758-1.52 1.521-2.757-2.76zm1.52-1.52l2.758 2.758-1.52 1.521-2.757-2.76 1.52-1.52zm-5.6 7.301l3.377 1.95 1.075-1.862-3.378-1.95-1.074 1.862zm1.074-1.862l3.378 1.95-1.075 1.863-3.377-1.95 1.074-1.863zm-3.521 8.503l3.767 1.01.556-2.077-3.767-1.01-.556 2.077zm.556-2.077l3.767 1.01-.556 2.077-3.767-1.01.556-2.077zm-1.2 9.126h3.899v-2.15h-3.899v2.15zm0-2.15h3.899v2.15h-3.9l.001-2.15zm54.155.001v2.15h-3.898v-2.15H131zm0 2.15h-3.898v-2.15H131v2.15zm-1.2-9.124l.556 2.077-3.767 1.009-.556-2.078 3.767-1.008zm.556 2.077l-.556-2.077-3.767 1.008.556 2.078 3.767-1.009zm-3.521-8.505l1.075 1.862-3.375 1.952-1.075-1.863 3.375-1.95zm1.075 1.862l-3.375 1.952-1.075-1.863 3.375-1.95 1.075 1.861zm-5.6-7.301l1.52 1.52-2.756 2.759-1.52-1.521 2.756-2.758zm1.52 1.52l-2.756 2.759-1.52-1.521 2.756-2.758 1.52 1.52zm-7.298-5.603l1.862 1.075-1.95 3.378-1.861-1.075 1.949-3.378zm1.862 1.075l-1.95 3.378-1.861-1.075 1.949-3.378 1.862 1.075zm-8.5-3.522l2.076.557-1.008 3.767-2.077-.556 1.009-3.768zm2.076.557l-1.008 3.767-2.077-.556 1.009-3.768 2.076.557zM198.82 36.71l-2.136-.236c.083-.751.194-1.496.332-2.235l2.113.396a28.1 28.1 0 0 0-.308 2.075zm.773-4.124l-2.077-.553c.193-.729.414-1.45.662-2.16l2.03.708a27.91 27.91 0 0 0-.615 2.005zm1.38-3.963l-1.97-.858c.3-.692.627-1.371.979-2.037l1.9 1.003c-.326.62-.63 1.25-.909 1.892zm1.967-3.725l-1.82-1.144c.4-.638.825-1.26 1.272-1.867l1.73 1.276a28.2 28.2 0 0 0-1.182 1.735zm2.48-3.367l-1.63-1.401a30.459 30.459 0 0 1 1.532-1.658l1.523 1.517c-.494.496-.969 1.01-1.424 1.542zm2.97-2.982l-1.405-1.627c.57-.492 1.157-.964 1.761-1.412l1.281 1.727c-.561.417-1.107.854-1.637 1.312zm3.386-2.512l-1.147-1.818c.636-.403 1.288-.78 1.952-1.134l1.01 1.899c-.618.328-1.223.68-1.815 1.053zm3.714-1.974l-.863-1.97c.69-.302 1.39-.578 2.101-.828l.713 2.029c-.66.232-1.31.489-1.95.77zm3.92-1.38l-.561-2.077c.725-.196 1.46-.366 2.2-.507l.404 2.112a27.91 27.91 0 0 0-2.043.471zm4.127-.79l-.244-2.137a30.454 30.454 0 0 1 2.251-.173l.086 2.15c-.702.027-1.4.08-2.093.16zm4.204-.167l.073-2.149c.755.026 1.506.08 2.253.16l-.232 2.138a28.34 28.34 0 0 0-2.094-.149zm4.175.454l.391-2.114c.742.137 1.477.302 2.204.494l-.548 2.08a27.923 27.923 0 0 0-2.047-.46zm4.055 1.072l.704-2.032c.712.247 1.414.52 2.105.82l-.854 1.973a27.907 27.907 0 0 0-1.955-.761zM239.707 14.813l.996-1.906c.325.17.65.348.975.533l-1.062 1.87a29.607 29.607 0 0 0-.91-.497zm15.113 24.948h2.15c0 .374-.007.745-.02 1.114l-2.148-.077c.012-.344.018-.69.018-1.037zM254.48 42.775l2.137.235a30.26 30.26 0 0 1-.325 2.206l-2.113-.392a28.11 28.11 0 0 0 .301-2.049zm-.754 4.073l2.079.547c-.19.72-.406 1.432-.647 2.135l-2.033-.7c.225-.652.425-1.313.6-1.982zm-1.348 3.916l1.975.85a30.154 30.154 0 0 1-.955 2.015l-1.907-.993c.319-.613.615-1.237.887-1.872zm-1.918 3.687l1.828 1.131c-.391.633-.806 1.25-1.242 1.852l-1.74-1.263c.406-.56.79-1.133 1.154-1.72zm-2.423 3.342l1.643 1.386a30.43 30.43 0 0 1-1.498 1.65l-1.537-1.502a28.28 28.28 0 0 0 1.392-1.534z"/>
        <path fill="#282D33" fill-rule="nonzero" d="M244.972 60.842c-.258.228-.521.452-.789.673l.683.83.697.818.818-.697-.698-.818-.711-.806zm1.423 1.612a31.63 31.63 0 0 1-.846.721l-1.38-1.648.817-.697 1.41 1.624zm-11.439-31.66a12.379 12.379 0 0 0-8.608-3.464c-6.865 0-12.431 5.57-12.431 12.438s5.566 12.437 12.43 12.437c6.867 0 12.433-5.569 12.433-12.437 0-.717-.06-1.423-.178-2.114l-3.646-6.86zm5.731 6.31c.161.87.242 1.76.242 2.664 0 8.056-6.528 14.587-14.581 14.587-8.052 0-14.58-6.531-14.58-14.587 0-8.056 6.528-14.589 14.58-14.589 3.88 0 7.523 1.525 10.233 4.197l.117.115 3.96 7.45.03.163zm1.083 37.31h-24.83v-7.4h-7.722a6.63 6.63 0 0 1-6.628-6.633v-7.062h-5.573l7.435-12.886a19.656 19.656 0 0 1-.012-.663c0-11.974 9.705-21.685 21.674-21.685 11.97 0 21.674 9.71 21.674 21.685a21.615 21.615 0 0 1-6.018 14.996v19.648zm-2.15-20.53l.314-.316a19.468 19.468 0 0 0 5.704-13.798c0-10.787-8.74-19.535-19.524-19.535-10.782 0-19.525 8.748-19.525 19.535 0 .267.007.546.022.886l.014.312-5.885 10.2h4v9.213a4.48 4.48 0 0 0 4.478 4.482h9.871v7.4h20.531v-18.38zm-14.043-17.615l.45-.368h.703l-.76.76-.393-.392zm42.88-35.07l1.44 1.594-38.89 38.908-5.037-5.04-11.263 11.27-1.44-1.594 12.31-10.068-.367-.368h.817L268.457 1.2zm-37.45 37.46l22.198-22.208-24.428 19.978 2.23 2.23zm-16.38 9.343l-1.44-1.592 12.783-12.79 2.807 2.81-14.15 11.572zm55.584-32.808L255.981.957h14.23v14.237zm-2.15-12.086h-6.891l6.892 6.895V3.108zM156.198 114.697l.757 2.013-19.957 7.506-.756-2.013 19.956-7.506zm.757 2.013l-19.957 7.506-.756-2.013 19.956-7.506.757 2.013zm-1.99-24.803l.84 1.98-17.573 7.479-.841-1.98 17.573-7.479zm.84 1.98l-17.573 7.479-.841-1.98 17.573-7.479.842 1.98zm-17.27-4.06l16.968-7.22-.841-1.978-16.968 7.22.841 1.979zm-.841-1.978l16.968-7.22.841 1.979-16.968 7.22-.841-1.98zm-.318 24.815l19.2-7.22-.755-2.014-19.201 7.221.756 2.013zm-.756-2.013l19.2-7.221.757 2.013-19.201 7.221-.756-2.013zm17.56-33.22l2.147-.108 2.507 50.468-2.147.106-2.507-50.467zm2.147-.108l2.507 50.468-2.147.106-2.507-50.467 2.147-.107zm-19.818 50.574l2.506-50.467-2.146-.106-2.507 50.467 2.147.106zm-2.147-.106l2.147.106 2.506-50.467-2.146-.106-2.507 50.467zm-.001-49.857V65.755h24.475v12.18H134.36zm22.326-2.15v-7.878h-20.177v7.878h20.177zm-18.754-7.878V54.473h17.331v13.433h-17.33zm15.182-2.15v-9.132h-13.032v9.131h13.032zm1.274-11.371l-7.79-7.319-7.79 7.319h15.58zm-7.79-10.269l13.22 12.42h-26.44l13.22-12.42zm-15.48 85.004v-2.15h30.959v2.15h-30.958zm0-2.15h30.959v2.15h-30.958v-2.15zm16.555-59.93h-2.15v-6.685h2.15v6.685zm-2.15 0v-6.685h2.15v6.685h-2.15z"/>
        <path fill="#282D33" fill-rule="nonzero" d="M214.675 80.877l-.844 1.978-52.505-22.444v-1.978L213.83 35.99l.845 1.977-50.19 21.455zM256.876 186.992c8.855-8.857 8.855-23.22 0-32.079-8.854-8.859-23.209-8.859-32.063 0-8.854 8.86-8.854 23.221 0 32.08 8.854 8.859 23.209 8.859 32.063 0zm-33.583 1.521c-9.693-9.698-9.693-25.422 0-35.12 9.694-9.7 25.41-9.7 35.103 0 9.694 9.699 9.694 25.423 0 35.12-9.694 9.7-25.41 9.7-35.103 0z"/>
        <path fill="#C3F2D2" d="M253.874 183.988c-7.307 7.31-19.153 7.31-26.46 0-7.307-7.31-7.307-19.162 0-26.473 7.307-7.31 19.153-7.31 26.46 0 7.306 7.31 7.307 19.163 0 26.473"/>
        <path fill="#282D33" fill-rule="nonzero" d="M241.377 170.185a1.083 1.083 0 1 0-1.532 1.533 1.083 1.083 0 1 0 1.532-1.533zm-3.052 3.054a3.236 3.236 0 0 1-.001-4.575 3.232 3.232 0 0 1 4.573 0 3.236 3.236 0 0 1 0 4.575 3.231 3.231 0 0 1-4.572 0zm7.117-5.6l6.869-6.873-1.52-1.52-6.87 6.872 1.52 1.52zm-1.52-1.52l6.869-6.874 1.52 1.52-6.87 6.874-1.52-1.52zm-13.491 16.538l6.868-6.872-1.52-1.52-6.868 6.871 1.52 1.521zm-1.52-1.52l6.869-6.873 1.52 1.521-6.87 6.872-1.52-1.52zm15.01-5.352l6.87 6.872 1.52-1.52-6.87-6.873-1.52 1.521zm1.52-1.52l6.87 6.871-1.52 1.521-6.87-6.872 1.52-1.52zm-16.53-13.5l6.869 6.874 1.52-1.52-6.87-6.874-1.52 1.52zm1.52-1.52l6.869 6.873-1.52 1.52-6.87-6.872 1.52-1.52zm15.937 12.782v-2.15h5.398v2.15h-5.398zm0-2.15h5.398v2.15h-5.398v-2.15zm-16.91 2.15v-2.15h5.396v2.15h-5.397zm0-2.15h5.396v2.15h-5.397v-2.15zm10.078 6.835h2.15v5.399h-2.15v-5.4zm2.15 0v5.399h-2.15v-5.4h2.15zm-2.15-16.92h2.15v5.4h-2.15v-5.4zm2.15 0v5.4h-2.15v-5.4h2.15zm0-9.765h-2.15v-7.38h2.15v7.38zm-2.15 0v-7.38h2.15v7.38h-2.15zm3.419-7.74a2.344 2.344 0 1 0-4.689-.001 2.344 2.344 0 0 0 4.689.002zm2.15 0a4.494 4.494 0 0 1-8.986 0 4.494 4.494 0 1 1 8.985 0zm89.177-59.608l-4.318 6.902 4.318 6.901h27.574V82.68h-27.574zm29.724 15.954H333.09l-5.662-9.052 5.662-9.053h30.915v18.105zm3.046 11.578V71.925h-7.881v5.956l7.88 32.33zm-10.03-40.437h12.18v58.33l-12.18-49.965v-8.365zm2.149 49.384h-2.15v-18.232h2.15v18.232zm-2.15 0v-18.232h2.15v18.232h-2.15zm-3.761 9.637v-6.834h19.704v6.834H353.26zm17.554-2.15v-2.534h-15.405v2.533h15.405zm-.934-37.577h22.062l4.317-6.902-4.317-6.901H369.88v13.803zm23.253-15.954l5.662 9.052-5.662 9.053H367.73V73.114h25.403zm-24.328 10.128v-2.15h18.055v2.15h-18.055zm0-2.15h18.055v2.15h-18.055v-2.15zm-28.756 9.564v-2.15h17.387v2.15h-17.387zm0-2.15h17.387v2.15h-17.387v-2.15zm35.768 40.289v-2.15h20.062v2.15h-20.062zm0-2.15h20.062v2.15h-20.062v-2.15zm-63.02 2.15v-2.15h20.061v2.15h-20.062zm0-2.15h20.061v2.15h-20.062v-2.15zm33.144 2.15v-2.15h20.062v2.15h-20.062zm0-2.15h20.062v2.15h-20.062v-2.15zm-2.891 8.171v-2.15h20.06v2.15h-20.06zm0-2.15h20.06v2.15h-20.06v-2.15zm9.708 8.506v-2.15h10.353v2.15h-10.353zm0-2.15h10.353v2.15h-10.353v-2.15zm14.366-4.206v-2.15h12.706v2.15h-12.706zm0-2.15h12.706v2.15h-12.706v-2.15z"/>
        <path fill="#28E064" d="M.04 42.133c-.019-.13-.04-.258-.04-.393a2.743 2.743 0 0 1 2.742-2.743c.299 0 .582.06.85.149.405-2.743 2.76-4.852 5.614-4.852.419 0 .826.049 1.218.135a6.928 6.928 0 0 1 5.147-2.29c3.264 0 5.997 2.255 6.744 5.29h.013a4.114 4.114 0 0 1 4.113 4.116c0 .2-.02.395-.047.588H.04M145.628 29.272h24.636c0-.023.004-.044.004-.067a4.954 4.954 0 0 0-4.953-4.956c-.464 0-.913.068-1.338.188-.486-3.543-3.523-6.276-7.199-6.276a7.271 7.271 0 0 0-7.27 7.271v.049a4.436 4.436 0 0 0-3.88 3.791"/>
    </g>
</svg>
